<svg xmlns="http://www.w3.org/2000/svg" width="564px" height="564px" viewBox="0 0 563.5635365999999 563.5635365999999" version="1.1" id="svg5" xml:space="preserve" data-square-offset-x="87.43458329999996" data-square-offset-y="83.34390329999997"><defs id="defs2"/><g id="layer1"><path style="fill:#000000;stroke-width:1" d="m 264.2754832999992 479.67610330000025 c -37.1778,-3.5635 -71.4924,-16.7749 -100.1199,-38.5474 -29.0573,-22.0996 -54.1356,-58.2198 -66.8516,-96.2863 -4.1155,-12.3202 -6.0225,-19.9339 -7.6639,-30.597 -1.9046,-12.3732 -2.4609,-21.4838 -2.1039,-34.4498 0.7656,-27.8039 5.7985,-53.5904 15.0303,-77.0092 5.3965,-13.6897 15.6802,-31.3717 26.1519,-44.9661 5.8799,-7.6331 22.5089,-24.3873 30.6719,-30.9029 22.4106,-17.8874 49.9323,-31.7491 75.9,-38.2283 12.3559,-3.083 20.4451,-4.2619 34.9238,-5.0901 43.5563,-2.491 93.8067,13.4368 126.9329,40.2339 5.3257,4.3081 12.2799,10.8342 11.2023,10.5128 -0.4182,-0.1243 -2.5208,-1.4902 -4.6728,-3.034 -14.315,-10.2707 -34.5244,-17.8853 -53.7757,-20.2624 -7.0589,-0.8715 -25.2443,-0.3507 -33.2521,0.9523 -24.7865,4.0332 -46.1355,13.5296 -66.3438,29.5111 -6.6672,5.2728 -18.014,16.6369 -23.6055,23.6415 -7.7817,9.7483 -15.6505,22.4211 -20.509,33.0299 -3.9808,8.6926 -7.8885,21.7791 -9.4046,31.4958 -0.9043,5.7955 -1.1895,17.9035 -0.5778,24.5291 l 0.3988,4.3201 4.5693,-2.1608 c 2.9255,-1.3833 5.5556,-2.2591 7.3108,-2.4345 l 2.7414,-0.2737 -2.1324,0.6829 c -3.1952,1.0233 -5.357,2.9386 -6.9177,6.1288 -1.2605,2.576 -1.4276,3.5302 -1.6588,9.4623 -0.2293,5.8907 -0.3715,6.7117 -1.3268,7.6657 -1.0051,1.0035 -1.223,1.0291 -3.5903,0.4223 -2.1911,-0.5616 -2.9304,-0.5327 -5.659,0.2204 -1.7262,0.4765 -4.3722,1.5346 -5.8801,2.3513 l -2.7414,1.4849 1.9937,-1.7449 c 1.9762,-1.7294 3.3032,-2.4093 7.8217,-4.0079 1.2864,-0.4552 2.9303,-1.2927 3.6533,-1.8613 1.1756,-0.9248 1.2346,-1.1139 0.5573,-1.7912 -0.9775,-0.9775 -3.2827,-0.8995 -5.3858,0.1828 -2.2895,1.1774 -7.1966,4.9941 -8.1248,6.3192 -0.9943,1.4197 -0.9666,1.1309 0.2562,-2.6786 2.4643,-7.6759 3.1005,-11.0331 2.8322,-14.9456 -0.324,-4.7291 -1.4402,-7.3171 -4.8146,-11.1642 -1.4421,-1.6442 -2.9735,-3.6624 -3.4028,-4.4847 -1.1887,-2.2765 -1.4069,-8.0958 -0.4154,-11.0806 0.9781,-2.9447 3.6372,-6.2264 5.7567,-7.1043 1.8897,-0.7827 1.9932,-1.6372 0.1451,-1.194 -3.4767,0.8336 -6.9794,4.0532 -8.1327,7.4756 -1.1026,3.2714 -0.8385,8.3872 0.7019,13.5971 0.7619,2.5764 1.5524,6.3895 1.7568,8.4734 l 0.3716,3.7891 0.5923,-1.9937 c 0.3259,-1.0966 0.5946,-2.6666 0.5974,-3.4891 v -1.4955 l 1.4651,2.2085 c 2.0442,3.0814 2.7133,6.3259 2.362,11.4532 -0.2997,4.3749 -1.8679,11.4104 -3.1638,14.1946 -0.5887,1.2648 -0.6733,1.3214 -0.4578,0.3058 0.1451,-0.6854 0.6274,-3.4095 1.0706,-6.0535 1.201,-7.1644 -0.053,-11.9355 -3.6835,-14.0251 l -1.5442,-0.8886 1.2648,2.7627 c 0.8205,1.7922 1.3621,4.0492 1.5418,6.4246 0.3636,4.8086 -1.0045,14.8826 -3.0216,22.247 -1.543,5.6345 -1.572,5.6897 -1.7054,3.2399 -0.507,-9.3061 -2.6335,-18.6637 -6.8059,-29.9475 -3.5419,-9.5792 -4.4113,-14.7753 -4.1215,-24.6317 0.2673,-9.0925 0.8541,-11.9805 3.6055,-17.7425 2.7164,-5.6885 6.2541,-8.6402 11.5621,-9.6467 4.5028,-0.854 8.8295,1.1536 8.5038,3.9459 -0.1243,1.0657 -0.4583,1.3014 -2.141,1.5118 -2.3413,0.2926 -2.9181,1.7268 -1.288,3.202 2.2265,2.015 7.5183,-0.8905 7.5183,-4.1281 0,-3.3331 -2.2224,-6.4728 -5.732,-8.0978 -2.6685,-1.2355 -7.7827,-1.2368 -10.4998,0 -5.9574,2.7058 -10.8502,10.6802 -13.1839,21.4876 l -0.9148,4.2367 -0.038,-6.4078 c -0.043,-7.6454 0.6627,-10.8696 3.6159,-16.4888 2.4845,-4.7274 8.8369,-11.5077 12.3298,-13.1604 4.0802,-1.9308 8.8397,-1.1505 10.5378,1.7275 l 1.0269,1.7405 1.4037,-1.3449 1.4036,-1.3449 0.7423,1.6893 c 0.4082,0.9291 0.8773,2.3258 1.0423,3.1041 0.2487,1.1717 0.425,1.311 1.0275,0.8112 1.6211,-1.3455 0.5621,-6.3688 -2.0702,-9.8201 l -1.271,-1.6663 1.4112,0.3934 c 2.6155,0.7294 7.8682,0.437 9.3276,-0.5192 2.4292,-1.5917 4.2065,-5.6946 2.8341,-6.5427 -0.2553,-0.1583 -1.318,0.2925 -2.3614,1.0007 -2.0751,1.408 -4.2753,1.373 -6.5684,-0.1055 -0.9677,-0.6238 -1.1376,-1.0908 -0.9837,-2.7047 0.1432,-1.5011 0.019,-1.9481 -0.5748,-1.9396 -1.3373,0.019 -4.9977,1.9102 -4.9968,2.5814 6e-4,0.3561 1.6951,1.7266 3.7657,3.0455 3.4727,2.2123 4.7246,3.4825 4.0735,4.1336 -0.1413,0.1413 -1.9078,-0.2528 -3.9245,-0.8773 -4.7635,-1.4749 -10.5312,-1.4977 -14.2225,-0.056 l -2.5811,1.0078 0.493,-1.2968 c 0.8597,-2.2612 0.5839,-8.8135 -0.4702,-11.1693 -1.696,-3.7902 -4.7833,-5.4107 -6.2686,-3.2902 -0.781,1.1153 -0.8038,1.1183 -0.8038,0.1074 0,-0.5725 -0.7929,-2.6258 -1.762,-4.5628 -2.1241,-4.2458 -6.0798,-8.0959 -9.5241,-9.2694 -2.6201,-0.8927 -8.0183,-1.0555 -10.5859,-0.3191 -1.641,0.4706 -1.6589,0.4597 -0.8012,-0.4881 1.5889,-1.7556 5.8813,-2.9839 10.4276,-2.9839 5.8116,0 9.9043,1.33 13.1943,4.2881 1.3973,1.2562 2.5576,2.2071 2.5785,2.1131 0.3796,-1.6994 0.4106,-2.4627 0.1639,-4.0401 -0.3533,-2.2652 -1.1014,-2.7245 -5.853,-3.5937 -1.9887,-0.364 -2.8995,-0.6772 -2.0557,-0.7074 2.585,-0.092 7.3893,1.3826 8.3857,2.574 0.5109,0.6107 1.8002,2.8427 2.8648,4.96 2.3151,4.6034 3.701,5.5441 8.1688,5.5446 8.7866,0 15.3274,-8.0827 10.3184,-12.7523 -2.7703,-2.5826 -4.7304,-2.9692 -7.269,-1.4338 -0.8547,0.5169 -2.1148,1.0964 -2.8001,1.2874 -1.0021,0.2792 -0.7937,-0.049 1.0628,-1.6764 3.0204,-2.6474 3.9215,-4.9853 3.9215,-10.1746 0,-3.9162 0.057,-4.1248 1.1215,-4.2043 0.6168,-0.045 1.514,-0.567 1.9939,-1.158 2.2062,-2.7182 -0.064,-6.3532 -4.6545,-7.4545 -1.5866,-0.3807 -4.4676,-0.5241 -7.5487,-0.3756 l -4.9827,0.2398 4.917,-3.1862 c 2.7043,-1.7524 6.0383,-3.8098 7.409,-4.572 1.3707,-0.7622 5.4081,-3.0641 8.972,-5.1155 10.781,-6.2058 12.2175,-6.9584 17.6743,-9.2603 38.1513,-16.094 69.0654,-19.2289 109.6774,-11.1228 13.0813,2.6111 18.5181,3.5869 18.7416,3.3637 0.2665,-0.2668 -13.6692,-4.1739 -18.9908,-5.3246 -21.7959,-4.7123 -50.2199,-5.2483 -70.8442,-1.3361 -12.4552,2.3628 -23.6713,5.7641 -35.7748,10.8487 -15.2488,6.4061 -32.8193,16.7874 -46.6518,27.5635 -7.4854,5.8316 -18.8175,16.0548 -19.2272,17.3462 -0.162,0.5099 -0.024,1.2527 0.3063,1.6508 0.7498,0.9033 1.5301,0.9474 1.1923,0.068 -0.3016,-0.7861 9.4825,-10.0925 13.912,-13.2325 1.688,-1.1966 4.7512,-2.991 6.8072,-3.9876 3.3561,-1.6265 4.1511,-1.8119 7.774,-1.8119 4.6541,0 5.9003,0.6221 5.4404,2.716 -0.1582,0.7209 0.072,2.7114 0.5094,4.4233 0.6492,2.5338 0.6875,3.4454 0.2056,4.9052 -0.7555,2.289 -3.6027,5.4475 -6.025,6.6831 -2.3377,1.1927 -3.2661,1.2358 -2.1294,0.1 1.6198,-1.6197 2.8189,-5.0723 2.4449,-7.0398 l -0.3457,-1.8181 -1.1295,3.1063 c -0.6213,1.7085 -1.7317,3.8955 -2.4672,4.8598 -1.4605,1.915 -2.1203,2.3142 -1.3044,0.7893 0.7329,-1.369 0.6072,-6.5332 -0.1938,-7.9797 -0.6511,-1.1755 -0.695,-1.1143 -1.2567,1.7445 -0.9292,4.7293 -1.4838,5.7341 -3.7275,6.7531 -2.8024,1.273 -3.7673,1.1765 -1.7701,-0.1771 0.9103,-0.6167 1.8683,-1.7648 2.1288,-2.5513 0.5738,-1.7332 -0.1965,-4.6711 -1.671,-6.3722 l -1.0139,-1.1699 0.3142,3.0581 c 0.5788,5.6356 -1.2989,7.2527 -9.4902,8.1723 -9.1787,1.0304 -11.9635,2.1099 -15.9338,6.1764 -2.4008,2.459 -4.7313,6.4553 -4.1207,7.0661 0.1582,0.1582 1.8198,-0.4531 3.6916,-1.3593 4.7579,-2.3026 9.8457,-2.5971 13.4365,-0.7774 4.8169,2.4409 8.4611,7.7012 9.0083,13.0032 0.7312,7.0845 -4.8134,14.754 -10.6661,14.754 -4.3319,0 -7.7691,-3.9204 -5.9165,-6.7479 1.0335,-1.5774 1.3553,-1.5453 2.696,0.2681 0.9056,1.2247 1.4638,1.4954 3.0845,1.4954 3.9475,0 5.3672,-3.9064 2.561,-7.047 -1.1822,-1.3232 -1.8504,-1.615 -4.1122,-1.7968 -3.4397,-0.2764 -5.6797,1.0885 -7.3669,4.489 -4.0535,8.1704 5.8078,15.6833 14.6828,11.1859 2.5988,-1.317 5.6005,-4.2462 6.8418,-6.6768 0.8715,-1.7062 1.8193,-6.0226 1.8728,-8.5277 0.023,-1.0147 0.1526,-1.5644 0.2907,-1.2217 0.1375,0.3426 0.5519,0.6232 0.9193,0.6232 0.3673,0 1.3406,0.5659 2.1627,1.2576 2.6647,2.2424 3.063,7.9266 0.8498,12.1265 -0.3826,0.7259 -2.2895,3.0954 -4.2376,5.2654 -5.5169,6.1462 -8.4015,11.5813 -10.0199,18.8808 -0.63,2.8411 -1.4681,4.2672 -1.4689,2.499 -7e-4,-1.6081 -2.8015,-6.8214 -4.986,-9.281 -1.1714,-1.3187 -4.7904,-4.5169 -8.0423,-7.1071 -6.596,-5.2539 -8.5575,-7.5957 -9.7247,-11.611 -2.0861,-7.1757 1.3739,-14.5708 8.2732,-17.6836 1.7706,-0.7987 3.2809,-1.021 6.8833,-1.0127 l 4.6149,0.019 -1.0889,-1.159 c -0.5989,-0.6375 -1.8904,-1.3818 -2.8704,-1.6538 -10.3391,-2.8722 -20.0721,7.3117 -18.7538,19.6226 0.6277,5.8609 2.8222,8.933 10.6051,14.8461 11.0954,8.4297 13.8792,13.6424 15.5721,29.1578 1.3055,11.9649 2.5195,17.9989 5.5191,27.4347 3.9405,12.3945 5.9618,21.7653 6.6448,30.8056 l 0.2638,3.4892 -0.7534,-2.4922 c -2.3441,-7.755 -5.6054,-13.8974 -10.7185,-20.187 -5.2823,-6.4977 -6.9209,-9.9039 -6.9209,-14.3868 0,-1.6045 0.4459,-4.1984 0.9969,-5.8001 1.1399,-3.3131 1.2324,-4.88 0.4297,-7.2776 -1.4176,-4.2338 -5.0229,-6.9279 -9.2709,-6.9279 -3.339,0 -6.0623,1.9553 -6.0962,4.377 -0.023,1.6186 1.1699,1.8631 2.8887,0.5923 2.0809,-1.5386 5.4045,-1.795 7.3565,-0.5676 1.1925,0.7497 1.7247,1.632 2.3683,3.9254 0.8181,2.916 0.8123,3.0104 -0.4167,6.6241 -1.5495,4.5557 -1.5497,5.417 -8e-4,9.9709 0.6854,2.015 1.2452,3.7926 1.2443,3.9501 0,0.3495 -1.7944,-2.5517 -1.9031,-3.0807 -0.043,-0.2072 -0.7215,-1.6651 -1.5088,-3.2399 -0.7873,-1.5747 -1.9148,-4.3212 -2.5055,-6.1031 -1.2362,-3.7286 -1.8511,-4.8569 -2.366,-4.3418 -0.2004,0.2004 0.2212,2.3247 0.9369,4.7206 l 1.3013,4.3565 -1.5208,-1.7447 c -6.4097,-7.3527 -8.3079,-9.5755 -9.5251,-11.154 -1.1695,-1.5169 -1.6962,-1.8053 -3.2966,-1.8053 -1.994,0 -4.1846,1.6073 -4.7899,3.5149 -0.4033,1.2707 0.5499,4.5625 1.7707,6.1143 1.4108,1.7936 7.5181,5.4416 11.7734,7.0325 4.545,1.6992 7.151,3.4479 10.8877,7.3056 3.1146,3.2156 3.0002,3.3174 -0.7477,0.6652 -3.3424,-2.3653 -6.5923,-3.8502 -12.9596,-5.9212 -9.3527,-3.042 -13.7541,-5.853 -18.6117,-11.8855 -5.6307,-6.9928 -7.6135,-15.9157 -4.7594,-21.4187 1.3111,-2.5282 4.1835,-5.4587 6.5941,-6.7277 2.2729,-1.1964 3.1216,-1.3541 7.3068,-1.3562 4.3301,0 4.9664,0.1262 7.4403,1.493 2.8786,1.5911 5.519,4.9683 5.519,7.0588 v 1.1319 l -1.7239,-1.0173 c -1.522,-0.8981 -1.8867,-0.9393 -3.1152,-0.3534 -1.8906,0.9016 -2.2013,3.4473 -0.5608,4.5962 1.9481,1.3645 4.464,1.0166 6.7407,-0.9323 8.0451,-6.8863 -2.5939,-18.2055 -15.2161,-16.1892 -5.6787,0.9072 -11.9592,4.9773 -13.98,9.0597 l -1.0535,2.1284 -3e-4,-1.6292 c -8e-4,-3.3071 5.2535,-17.6458 9.8142,-26.7819 2.2981,-4.6042 2.5553,-4.8977 3.4791,-3.9736 0.9945,0.9945 2.3306,0.9231 3.3268,-0.1771 1.1205,-1.2381 1.0387,-1.7963 -0.3736,-2.5521 -1.3078,-0.7 -2.2906,-0.3775 -2.2906,0.7517 0,0.395 -0.2242,0.7181 -0.4985,0.7181 -0.8415,0 -0.5591,-1.8311 0.8093,-5.2498 3.2505,-8.1191 -1.0423,-1.2207 -6.7342,10.8221 -3.5998,7.6161 -7.0212,16.2121 -8.595,21.5928 -1.5205,5.1995 -1.6424,14.7986 -0.2464,19.4393 1.2394,4.1204 3.8248,8.8985 6.8141,12.5929 l 2.5148,3.1079 h -2.9078 c -5.6604,0 -9.5985,3.2992 -9.5985,8.0409 0,1.9379 0.2745,2.7181 1.4003,3.978 2.566,2.872 8.5684,2.4541 8.5684,-0.5963 0,-1.3132 -1.379,-2.4507 -2.971,-2.4507 -0.7724,0 -1.9295,-0.425 -2.5711,-0.9446 -2.5591,-2.0722 0.8296,-5.681 5.9411,-6.3271 2.8021,-0.3544 2.9225,-0.3162 8.8222,2.8037 3.2898,1.7396 7.3999,3.7633 9.1338,4.497 l 3.1523,1.3338 -6.6414,0.2534 c -5.3395,0.2038 -7.4387,0.5113 -10.7076,1.5687 -6.908,2.2348 -12.5918,6.8224 -15.5069,12.5161 -5.6754,11.0851 7.3601,23.7631 17.8003,17.3124 2.7821,-1.7189 4.283,-4.299 4.9653,-8.5358 0.6123,-3.8019 2.0115,-6.0531 5.0091,-8.0598 4.4406,-2.9728 10.8483,-3.7327 18.74,-2.2228 5.3193,1.0179 7.7406,2.3113 10.0953,5.3932 5.8722,7.6858 7.5112,14.4543 7.6276,31.5021 0.083,12.1934 -0.4964,15.7697 -3.5554,21.9315 -1.4157,2.8518 -8.8546,13.533 -13.2826,19.0725 -3.1403,3.9283 -5.692,8.3706 -7.5116,13.0769 -1.7177,4.4429 -1.7413,4.1784 -0.3412,-3.8209 0.9593,-5.4805 0.4531,-8.9664 -1.7424,-11.997 l -1.4012,-1.9346 1.4291,-0.82 c 1.181,-0.678 1.4291,-1.1511 1.4291,-2.7268 0,-1.1892 -0.4451,-2.556 -1.1834,-3.6334 l -1.1835,-1.7271 1.4327,-0.6023 c 1.9984,-0.8404 1.7861,-1.8963 -0.5712,-2.8394 -4.0893,-1.6363 -8.4497,-0.3694 -10.8163,3.1423 -2.2809,3.3848 -0.8441,7.5327 2.9521,8.5231 1.1782,0.3072 2.6949,0.7145 3.3706,0.905 0.7262,0.2049 1.8438,1.3419 2.7341,2.7821 1.3025,2.1069 1.5067,2.9134 1.5129,5.9754 0,1.947 -0.2997,5.5433 -0.6748,7.992 -1.0114,6.6067 -0.5307,21.1745 0.8717,26.4066 1.2138,4.5289 2.8667,8.3463 4.8025,11.0917 1.0704,1.5182 1.2786,1.6556 1.0096,0.6665 -0.1865,-0.6853 -0.792,-4.162 -1.3458,-7.7259 -1.9762,-12.7166 -0.5722,-20.0898 4.3781,-22.991 1.8045,-1.0574 2.661,-1.259 4.48,-1.0539 2.7452,0.3094 4.6792,1.9401 4.6792,3.9449 0,1.184 -0.2063,1.4086 -1.2937,1.4086 -1.725,0 -3.9766,1.3801 -4.645,2.847 -1.4817,3.252 0.418,6.126 4.0469,6.123 4.5863,0 7.7979,-4.0773 7.1994,-9.1309 -0.4073,-3.4379 -2.1789,-5.9126 -5.372,-7.5039 -3.5297,-1.7588 -6.2926,-1.7183 -10.2427,0.1507 l -3.0797,1.457 0.6631,-1.8797 c 1.1957,-3.3887 2.6384,-5.737 4.8321,-7.865 3.869,-3.753 8.219,-4.6739 11.5143,-2.4375 1.7584,1.1932 1.7697,1.1942 2.0393,0.162 0.3457,-1.3214 0.1017,-1.6904 -1.7541,-2.6499 -1.7226,-0.8909 -5.2176,-1.1358 -8.1446,-0.5708 l -1.9938,0.3847 2.7939,-2.6636 c 3.6201,-3.4513 6.7754,-4.9604 10.9133,-5.2199 11.9568,-0.7492 20.9349,12.5476 13.8898,20.5714 -3.4396,3.9177 -9.7741,3.0997 -10.584,-1.3666 -0.1356,-0.7469 -0.038,-1.4873 0.2178,-1.645 0.2551,-0.1582 0.4638,-0.075 0.4638,0.1846 0,0.2591 0.7664,0.8346 1.7028,1.279 2.0071,0.9525 3.8872,0.47 4.7975,-1.2311 0.4768,-0.8909 0.4071,-1.3151 -0.3928,-2.3916 -1.5155,-2.0393 -3.0454,-1.9119 -6.011,0.5004 -2.2707,1.8471 -2.5887,2.3316 -2.5887,3.9442 0,4.7986 6.0691,7.4545 11.2752,4.9343 9.7604,-4.7248 8.4982,-18.0988 -2.2488,-23.8269 -3.7768,-2.0129 -7.1576,-3.0475 -9.9817,-3.0543 -3.9761,-0.019 -1.5587,-0.7468 3.3642,-1.0258 l 4.8186,-0.2729 -1.9931,-0.9073 c -1.0964,-0.4989 -3.2832,-1.0241 -4.8599,-1.1671 -1.5766,-0.1432 -2.8666,-0.3153 -2.8666,-0.3832 0,-0.068 0.8654,-1.4383 1.9232,-3.046 1.0578,-1.6075 2.9748,-4.5531 4.2602,-6.5457 2.9383,-4.5554 4.8738,-6.7657 7.5178,-8.5848 5.3029,-3.6485 14.3911,-4.8404 19.5207,-2.5602 1.4123,0.6277 3.0754,1.6817 3.696,2.3422 0.9735,1.0363 1.0485,1.3756 0.5474,2.4754 -0.895,1.9645 -0.6982,3.1214 0.6859,4.0283 1.0085,0.6607 1.5135,0.7172 2.4784,0.2775 3.1766,-1.4474 1.1447,-6.3285 -4.1134,-9.8817 -5.9611,-4.0282 -13.3077,-3.9256 -21.8765,0.3054 -2.2286,1.1004 -5.2006,3.0334 -6.6045,4.2956 -1.4038,1.2622 -2.5524,2.1646 -2.5524,2.0054 0,-0.7025 3.1451,-10.0463 3.4571,-10.2701 0.1908,-0.1375 1.0623,-1.3005 1.9364,-2.5854 1.9666,-2.8907 5.2809,-5.656 7.8586,-6.5565 5.2293,-1.8272 8.4175,-1.4255 11.1623,1.4063 0.935,0.9648 1.8261,1.7543 1.9798,1.7543 0.1545,0 0.1993,-1.0094 0.1017,-2.2431 -0.2053,-2.5811 0.1,-2.7062 3.1824,-1.3061 1.9116,0.8684 4.7146,3.5938 4.7146,4.5842 0,0.2532 0.2242,0.4602 0.4985,0.4602 0.2741,0 0.4983,-0.5928 0.4983,-1.3172 0,-0.9073 -0.737,-2.0538 -2.3675,-3.6831 -2.6881,-2.6859 -5.9658,-3.9358 -10.5578,-4.0263 l -2.7755,-0.055 2.243,-0.4659 c 5.9253,-1.2307 13.003,0.5367 16.8817,4.2159 1.7857,1.6938 3.2821,4.5618 2.7931,5.3533 -0.1715,0.2761 0.6565,0.4764 1.9692,0.4764 h 2.2634 l 4.4256,6.6043 c 7.2522,10.8223 11.6365,15.843 20.4828,23.4553 16.1795,13.9224 30.3293,22.1423 48.5318,28.1928 23.4373,7.7904 47.032,9.4772 69.8795,4.9954 13.5899,-2.6656 22.7155,-5.5003 37.26,-11.5735 2.9477,-1.231 5.2336,-2.0342 5.0795,-1.7848 -0.1583,0.2556 1.2575,0.4531 3.2472,0.4531 1.9398,0 5.5979,0.4402 8.1291,0.9781 8.4196,1.7896 10.8749,1.6386 13.1854,-0.8112 2.3228,-2.4632 2.6214,-2.0318 2.8168,4.0699 0.06,1.8688 0.1582,1.9937 1.5591,1.9937 1.4413,0 1.495,-0.081 1.4858,-2.2429 0,-1.2338 -0.1984,-2.7784 -0.429,-3.4325 -0.3848,-1.0917 -0.3151,-1.1631 0.8502,-0.8707 3.3901,0.851 9.0662,-1.917 8.7186,-4.2515 -0.286,-1.9201 -1.5278,-2.1744 -3.683,-0.7543 -2.161,1.4238 -5.4287,2.1327 -7.4699,1.6203 -1.2711,-0.3189 -1.2238,-0.3807 1.2207,-1.5988 3.3422,-1.6656 4.5402,-3.2356 4.5402,-5.9499 0,-2.3714 -0.7149,-4.7004 -1.4429,-4.7004 -0.2588,0 -0.8289,1.0785 -1.2667,2.3964 -0.8491,2.5566 -4.0852,8.0709 -4.7362,8.0709 -0.215,0 -0.2887,-0.535 -0.1639,-1.1891 0.2824,-1.4767 -0.7574,-6.6613 -1.4177,-7.0694 -1.1045,-0.6825 -1.9385,0.9312 -1.9385,3.7504 0,1.5657 -0.1111,2.9579 -0.2469,3.0937 -0.1357,0.1357 -1.5904,0.03 -3.2322,-0.2336 -2.2548,-0.3632 -3.1698,-0.3274 -3.7404,0.147 -0.4156,0.3449 -0.7555,0.7912 -0.7555,0.9918 0,0.2007 1.7383,0.8724 3.8629,1.493 2.1247,0.6207 4.0341,1.2844 4.2434,1.4749 0.2092,0.1906 -0.1865,0.879 -0.8792,1.5299 -1.6738,1.5724 -5.4662,1.8256 -11.8324,0.7897 -2.6698,-0.4344 -5.7989,-0.7899 -6.9532,-0.7899 -2.6125,0 -2.4175,-0.1922 3.8326,-3.7766 2.7414,-1.5721 7.0031,-4.1992 9.4704,-5.8376 16.0254,-10.6425 36.0792,-33.0595 42.3433,-47.3329 0.6917,-1.5762 1.1604,-2.8659 1.0416,-2.8659 -0.1187,0 -2.4866,3.3474 -5.2613,7.4388 -9.0136,13.291 -21.2895,26.9916 -31.3946,35.0382 -25.6246,20.405 -63.0719,32.8354 -95.2023,31.6022 -9.507,-0.3649 -15.4822,-1.1443 -25.4899,-3.3251 -25.8441,-5.6314 -48.0609,-17.6076 -67.3423,-36.3014 -8.2909,-8.0383 -17.0001,-19.6204 -17.6355,-23.453 -0.5409,-3.2636 -10.7191,-10.908 -16.9609,-12.7385 -3.38,-0.9913 -10.2368,-0.967 -13.6645,0.049 -5.3477,1.5843 -10.3613,5.4087 -13.5123,10.3072 -0.8443,1.3125 -1.6173,2.3044 -1.7175,2.2041 -0.3581,-0.3581 2.807,-8.9962 4.1251,-11.2586 4.2668,-7.3231 14.3011,-13.0205 22.9324,-13.0205 7.0013,0 12.3567,2.1365 16.8944,6.7397 2.4053,2.44 3.5189,3.1877 5.4828,3.6815 3.4151,0.8583 4.2092,1.706 4.2092,4.4936 0,3.1502 -1.7381,5.6493 -4.7216,6.7887 -1.2411,0.474 -2.2567,0.9514 -2.2567,1.0608 0,0.4007 1.8016,3.0061 4.939,7.1421 10.1908,13.4355 19.9751,22.7653 33.3773,31.8273 16.5542,11.1933 32.6327,17.4675 54.6431,21.3234 7.3633,1.2901 8.9691,1.3973 20.9346,1.3982 14.3956,0 19.6071,-0.6271 33.1377,-3.9945 8.5725,-2.1335 11.3371,-3.0114 18.7002,-5.9378 20.6722,-8.2165 33.7302,-16.9652 48.7974,-32.693 21.9901,-22.9542 33.036,-47.6292 35.3777,-79.0286 l 0.5898,-7.9104 1.1345,5.292 c 1.8712,8.7302 2.5417,16.3034 2.5585,28.8958 0.03,23.3585 -2.7605,40.615 -10.192,63.0084 -19.9257,60.042 -66.4517,105.9731 -125.6178,124.0112 -13.105,3.9953 -22.751,6.0232 -36.137,7.5968 -9.4237,1.1077 -30.7119,1.3661 -39.9121,0.4843 z m 37.6692,-10.5248 c 35.4779,-3.8744 69.0696,-17.5101 96.1993,-39.0488 7.4812,-5.9396 23.7078,-22.0185 29.2021,-28.9363 20.0416,-25.2341 33.4583,-54.0986 39.8366,-85.7042 1.955,-9.6874 3.6539,-23.7903 2.7581,-22.8945 -0.1262,0.1244 -1.4519,6.3871 -2.948,13.9149 -1.496,7.5279 -3.4051,16.3786 -4.2423,19.6684 -3.6811,14.4634 -10.6829,32.1652 -17.9413,45.3582 -3.7107,6.7444 -14.249,22.3258 -19.6241,29.015 -5.86,7.2929 -17.3595,18.9874 -24.7976,25.2181 -27.6135,23.1315 -61.3602,37.1779 -100.4367,41.8043 -3.2167,0.3807 -10.736,0.6398 -18.1931,0.6264 -13.2376,-0.024 -21.7309,-0.7471 -32.3987,-2.7595 -11.2791,-2.1278 -23.681,-5.431 -20.3903,-5.431 1.0111,0 4.7564,-3.9059 5.4082,-5.64 2.581,-6.8667 -3.3779,-14.947 -11.0308,-14.9581 -5.3656,0 -9.8749,3.5251 -9.8749,7.7371 0,2.2578 1.091,4.6343 2.4647,5.3696 1.3091,0.7006 4.678,0.6478 5.4107,-0.085 1.0199,-1.0199 0.671,-1.3956 -1.2959,-1.3956 -2.2413,0 -3.0904,-0.7015 -3.0904,-2.5536 0,-1.8047 2.4888,-4.2509 5.0181,-4.932 5.2692,-1.4189 9.929,1.812 9.9333,6.8873 0,2.5291 -0.8225,4.2822 -2.9782,6.3304 -1.412,1.3417 -1.8907,1.4918 -4.6551,1.4619 -2.5345,-0.028 -4.3197,-0.5302 -10.0595,-2.8311 -3.838,-1.5388 -8.5072,-3.5144 -10.3762,-4.3906 l -3.3979,-1.593 2.7039,-1.0988 c 3.7478,-1.5232 5.714,-3.0338 7.3912,-5.6784 3.2197,-5.0772 0.9911,-13.0274 -4.2038,-14.9956 -4.069,-1.5418 -7.8181,0.1036 -7.8181,3.4311 0,2.2442 0.9826,3.2577 2.7386,2.8248 0.687,-0.1695 1.8098,-0.4461 2.4952,-0.6151 1.1231,-0.2771 1.246,-0.1582 1.246,1.2078 0,0.8858 -0.5136,2.1256 -1.2364,2.9846 -4.0716,4.8387 -12.8028,-0.162 -12.9294,-7.4051 -0.04,-2.2371 -0.068,-2.2756 -1.7844,-2.3829 -0.9595,-0.06 -2.1234,-0.2252 -2.5864,-0.367 -2.6244,-0.8035 -3.0596,8.7564 -0.6558,14.4069 0.4098,0.9634 -8.5867,-5.3477 -14.4525,-10.1386 -8.5566,-6.9886 -15.0942,-15.7117 -15.9945,-21.3409 l -0.3174,-1.9852 2.6416,2.4799 c 3.131,2.9396 9.9248,6.3952 15.6642,7.9673 5.8775,1.6101 16.8565,1.6322 22.3348,0.045 9.5959,-2.7802 16.1473,-7.9609 19.6884,-15.5695 l 1.7399,-3.7383 0.9572,2.2431 c 0.5264,1.2336 1.075,2.8267 1.2189,3.5402 0.7419,3.6767 -6.1495,10.5527 -14.056,14.0247 -6.1672,2.708 -10.8547,3.6145 -18.4254,3.5629 -7.2616,-0.049 -11.3349,-0.8291 -16.4526,-3.1496 -1.7951,-0.8139 -3.1449,-1.2877 -2.9997,-1.0525 0.1451,0.2351 1.9144,1.1145 3.9315,1.9541 4.2487,1.7688 10.9178,3.0515 15.8644,3.0515 4.0195,0 13.0016,-1.0265 12.5894,-1.4387 -0.2798,-0.2798 3.2521,-0.9956 10.0678,-2.041 9.627,-1.4766 19.1759,3.5733 25.7842,13.636 1.4626,2.2271 3.1206,5.0989 3.6849,6.3817 0.8577,1.9507 1.1998,2.2868 2.0912,2.0536 0.8947,-0.234 1.0166,-0.5287 0.7583,-1.834 -1.1424,-5.7739 -8.5144,-14.8357 -14.6921,-18.0597 l -3.2441,-1.6931 2.4922,0.324 c 1.3707,0.179 5.0333,0.9512 8.1393,1.7178 6.788,1.6753 11.1469,4.1115 12.6903,7.0927 0.9137,1.7649 0.9416,2.2211 0.3845,6.2975 -1.0928,7.9972 1.0196,14.162 6.8193,19.9016 6.9989,6.9262 15.8769,9.2805 27.3529,7.2536 2.4347,-0.43 7.1182,-0.8586 10.408,-0.9524 7.6845,-0.2193 12.166,-1.7093 18.2167,-6.0561 3.1653,-2.2741 4.4305,-4.4134 5.0035,-8.4601 0.2574,-1.817 0.5906,-3.5021 0.7404,-3.7448 0.1507,-0.2424 1.184,-0.4408 2.298,-0.4408 1.7439,0 1.939,-0.1036 1.4049,-0.7477 -0.8541,-1.0292 -3.1618,-0.9388 -4.159,0.1639 -0.4534,0.5011 -1.0834,2.2015 -1.4003,3.7788 -1.0075,5.017 -3.8559,7.7689 -8.0432,7.7706 -4.2502,0 -7.8757,-3.2689 -9.8106,-8.8497 -1.6785,-4.8421 -2.6386,-6.585 -5.1895,-9.4223 -3.7073,-4.1235 -11.051,-7.3519 -19.5394,-8.5899 l -2.9482,-0.4301 2.4921,-0.045 c 4.7542,-0.085 17.4583,0.8375 19.9376,1.4473 1.3708,0.3373 4.9595,1.7328 7.9752,3.1013 5.3167,2.4128 5.6639,2.4984 11.4642,2.8216 7.3518,0.4098 8.7411,0.9996 13.5087,5.7347 4.2782,4.2491 5.258,6.0162 5.6806,10.2447 l 0.3238,3.2399 1.127,-2.5588 1.1267,-2.5589 3.0325,1.5621 c 2.9196,1.5037 3.2472,1.5593 8.805,1.4905 3.4739,-0.043 6.3679,-0.3291 7.2678,-0.7183 1.3984,-0.6049 1.1722,-0.6692 -3.4891,-0.9905 -5.084,-0.3506 -9.6758,-1.5821 -12.823,-3.4389 -0.9344,-0.5514 -3.7856,-3.2583 -6.336,-6.0155 -4.506,-4.8716 -8.6227,-7.9229 -10.7475,-7.9666 -0.9013,-0.019 -0.8668,-0.1356 0.3587,-1.2138 2.401,-2.1137 3.3757,-4.2462 3.3778,-7.3891 0,-3.5944 -0.841,-5.6629 -3.1267,-7.67 -3.8719,-3.3994 -8.5294,-2.6672 -10.7776,1.6944 -1.3336,2.5873 0.9604,6.1162 3.9759,6.1162 1.541,0 2.1222,-0.3194 3.4019,-1.8692 l 1.5434,-1.8692 0.9972,1.1769 c 0.5484,0.6471 0.9971,1.4579 0.9971,1.8019 0,1.0672 -1.8861,3.0871 -3.6754,3.9362 -2.5947,1.2313 -5.6539,0.986 -11.8215,-0.9478 -6.1618,-1.9319 -10.4636,-2.6947 -15.4065,-2.7318 l -3.2399,-0.024 3.3723,-1.7987 c 7.6719,-4.092 10.1367,-7.8257 12.3482,-18.7048 1.7159,-8.4407 2.9325,-11.143 7.0131,-15.5767 1.752,-1.9034 2.7367,-3.2751 2.1885,-3.0481 -0.5482,0.2272 -3.1278,0.9582 -5.732,1.6247 -5.3139,1.36 -10.4079,1.3196 -16.4487,-0.13 -8.3772,-2.0099 -15.3489,-1.8215 -21.0342,0.5689 -8.638,3.6318 -13.5778,9.5859 -15.077,18.1724 -0.8218,4.7075 -2.4432,7.7518 -5.1033,9.5824 -2.8403,1.9543 -4.4431,2.4121 -9.3773,2.6777 l -4.4859,0.2417 3.6591,-1.2893 c 6.5212,-2.2982 9.1469,-4.0564 10.7836,-7.2213 1.5491,-2.9955 0.5644,-3.3165 -2.6025,-0.8485 -6.6111,5.1526 -13.43,8.02 -20.3137,8.5426 l -3.9876,0.3028 4.4861,-2.2565 c 5.0064,-2.5182 9.4352,-5.954 11.7273,-9.0974 3.07,-4.2103 3.8075,-13.6406 1.5323,-19.5948 -0.576,-1.5078 -1.0474,-2.803 -1.0476,-2.8782 -2e-4,-0.075 0.7914,0.5839 1.7592,1.4644 0.9675,0.8805 2.4577,3.0196 3.3113,4.7536 1.4372,2.9192 1.5312,3.4263 1.2718,6.8563 -0.3777,4.9945 -2.2006,8.9795 -5.561,12.1578 -1.4212,1.3439 -3.2998,2.8139 -4.1749,3.2664 -0.875,0.4525 -1.5911,0.9423 -1.5911,1.0883 0,0.147 1.3553,-0.4566 3.0116,-1.3394 4.3447,-2.3158 8.0624,-6.5218 9.5156,-10.7656 1.4724,-4.3001 1.5966,-10.057 0.2696,-12.5149 -2.2904,-4.2431 -8.9829,-9.4816 -14.8425,-11.6181 -1.6164,-0.5892 -2.9387,-1.1535 -2.9387,-1.2539 0,-0.1 0.9533,-0.1789 2.1185,-0.1752 1.5749,0 1.9264,0.1357 1.3707,0.5034 -0.5094,0.3376 1.9539,0.4808 7.7257,0.4487 4.6605,-0.026 9.0464,0.098 9.7466,0.274 1.6313,0.411 6.1416,-1.254 8.9935,-3.32 2.1376,-1.5484 2.1417,-1.5574 0.9247,-2.0182 -2.2303,-0.8445 -7.2544,-0.2183 -9.0621,1.1294 -1.1645,0.8681 -2.5171,1.292 -4.7312,1.4824 -1.7051,0.147 -2.9388,0.1262 -2.7414,-0.043 0.1974,-0.1696 2.0894,-1.5725 4.2042,-3.1158 4.0775,-2.9752 5.669,-4.8313 5.1973,-6.0608 -0.5273,-1.3741 -2.041,-0.778 -4.1048,1.6162 -1.1222,1.3022 -3.3853,3.3098 -5.0288,4.4614 l -2.9884,2.0941 1.1659,-2.3032 c 1.3809,-2.7275 1.4084,-3.1956 0.377,-6.4067 -1.617,-5.0329 -1.7554,-5.2611 -3.095,-5.0994 -1.7078,0.2062 -2.5305,1.5858 -1.7198,2.8838 0.8505,1.362 0.7795,6.2281 -0.1168,7.9601 -1.5047,2.91 -5.2779,4.2112 -13.9848,4.8233 -5.1411,0.3613 -5.2245,0.6486 -0.4821,1.6604 6.6554,1.4199 12.1465,5.4326 14.4462,10.5569 1.2307,2.7424 1.3482,3.4761 1.1371,7.1016 -0.3237,5.5586 -2.3943,11.5832 -4.9968,14.54 -1.0927,1.2412 -2.0808,2.1626 -2.1957,2.0475 -0.1149,-0.1149 0.1714,-1.0078 0.6371,-1.9841 0.665,-1.3944 0.7496,-2.2344 0.3945,-3.9178 -0.5676,-2.6904 -1.9146,-3.1844 -2.3772,-0.8717 -0.1734,0.8698 -0.9231,2.9337 -1.665,4.5868 -1.1454,2.5523 -1.798,3.2961 -4.3256,4.9296 -2.6675,1.7241 -9.1268,4.221 -9.6266,3.7214 -0.1073,-0.1074 1.1025,-0.929 2.6896,-1.8247 5.406,-3.051 10.6181,-8.4355 9.922,-10.2498 -0.3347,-0.8723 -4.2888,-0.9847 -4.2888,-0.1225 0,0.3197 -0.1262,0.4546 -0.282,0.2996 -0.1545,-0.1545 -0.032,-1.2097 0.273,-2.3432 1.5054,-5.5906 0.043,-13.1911 -3.4202,-17.7811 -3.7035,-4.9081 -10.7662,-8.1985 -15.9342,-7.4234 -6.125,0.9184 -11.1751,4.311 -13.3551,8.9719 -2.4625,5.2645 -1.1405,12.4809 2.7611,15.0738 4.92,3.2695 9.4889,-1.1721 5.2845,-5.1373 -1.9656,-1.8539 -2.1938,-2.9321 -0.7803,-3.6884 4.01,-2.1461 9.497,1.8546 9.5011,6.9279 0,7.5623 -10.2004,14.4546 -21.4435,14.48 -3.6039,0 -16.041,-2.0346 -19.2131,-3.1556 -3.6762,-1.2995 -7.102,-3.2737 -8.9085,-5.1336 -2.2519,-2.3189 -1.9309,-2.7444 0.5622,-0.7451 4.1929,3.3629 11.2738,4.3175 15.6092,2.1043 5.091,-2.5988 7.0046,-5.954 6.0184,-10.5525 -0.4062,-1.8935 -0.3587,-3.1487 0.2104,-5.5618 0.4041,-1.7139 0.7381,-3.4324 0.7421,-3.8184 0,-0.3862 -1.4382,0.6859 -3.2048,2.3825 -6.5049,6.2462 -15.5019,8.4698 -23.3388,5.7679 -1.307,-0.4506 -2.709,-0.6918 -3.1152,-0.5358 -1.4826,0.569 -0.5593,8.2797 1.7144,14.319 3.6281,9.6367 16.9512,23.6356 30.2776,31.813 2.4217,1.486 6.1798,3.8176 8.3516,5.1814 10.4677,6.5741 32.9182,15.2742 50.2463,19.4719 20.3874,4.9389 41.8302,6.2996 62.939,3.9943 z m -28.9097,-9.6526 c -5.6609,-1.2579 -9.4672,-3.333 -13.0361,-7.1064 -3.3137,-3.5038 -4.3933,-5.7039 -6.2132,-12.6634 -0.8236,-3.1494 -1.9279,-6.7307 -2.4543,-7.9584 -1.0465,-2.4413 -3.3742,-4.8862 -5.7106,-5.9982 l -1.4954,-0.7118 1.7445,0.3041 c 0.9596,0.1677 4.212,0.8607 7.2275,1.5412 3.0155,0.6804 8.5109,1.8816 12.2118,2.6693 8.8629,1.8863 12.5798,3.084 16.1994,5.2198 4.1738,2.4628 7.519,6.2842 10.682,12.2026 4.597,8.6012 7.6583,10.8931 13.8623,10.3786 1.4413,-0.1187 2.6206,-0.1526 2.6206,-0.075 0,0.6448 -5.2434,1.3328 -12.9593,1.7004 -18.572,0.885 -20.7226,0.9321 -22.6792,0.4973 z m 18.1072,-3.2576 c -0.5548,-0.5548 -8.4418,-5.3545 -13.3719,-8.1376 -2.8786,-1.6248 -6.7198,-3.9051 -8.536,-5.0669 -3.9677,-2.5379 -16.3046,-14.7435 -14.3925,-14.2388 1.0784,0.2844 1.1236,0.2522 0.3365,-0.2393 -0.5002,-0.3123 -1.0333,-0.444 -1.1846,-0.2927 -0.1507,0.1507 -0.9756,-0.079 -1.8319,-0.51 -1.4306,-0.7215 -1.3931,-0.643 0.4612,0.9694 3.0231,2.6286 4.4742,5.131 5.6976,9.8241 3.3501,12.8516 10.8724,17.7685 27.3832,17.8988 3.1297,0.024 5.5771,-0.068 5.4384,-0.207 z m -15.8641,-4.4145 c -6.5576,-1.4246 -11.2974,-5.3116 -14.8845,-12.2064 -1.1621,-2.2339 -2.0185,-4.0616 -1.9031,-4.0616 0.1149,0 1.3649,1.7776 2.7765,3.9501 4.2447,6.5333 9.6991,10.5998 16.3944,12.223 3.482,0.8441 1.4398,0.9255 -2.3833,0.094 z m 11.6932,-3.7935 c -3.9296,-7.6083 -7.9833,-10.5799 -20.4159,-14.9657 -3.2898,-1.1605 -6.8136,-2.5325 -7.8307,-3.0493 -1.0171,-0.5165 -2.0265,-0.9357 -2.2429,-0.9313 -0.2167,0 2.6342,1.6035 6.3352,3.5539 10.6882,5.633 17.165,10.1494 21.9867,15.3321 2.2999,2.4718 4.2482,4.503 4.3295,4.5135 0.081,0.019 -0.8914,-1.9933 -2.1619,-4.4532 z m -20.5312,-21.2933 c 0.4851,-0.1262 1.158,-0.1187 1.4954,0.019 0.3374,0.1356 -0.06,0.2398 -0.8818,0.2296 -0.8223,-0.019 -1.0985,-0.1224 -0.6136,-0.2481 z m -6.863,-4.5646 c -2.1146,-0.2858 -1.586,-0.3879 3.4892,-0.6731 9.0085,-0.5062 16.596,-2.8859 21.4288,-6.7213 2.6499,-2.1028 5.3713,-6.3019 7.6928,-11.8701 1.1432,-2.7414 2.6913,-5.8758 3.4406,-6.9652 1.3893,-2.0199 5.3274,-5.1554 5.8362,-4.6466 0.1545,0.1545 -0.6158,1.5613 -1.7121,3.1261 -1.1883,1.6964 -2.6351,4.7886 -3.5837,7.6591 -2.0843,6.3075 -3.3755,8.8095 -6.1257,11.8684 -2.7605,3.0701 -7.745,5.7995 -13.1201,7.1837 -4.176,1.0755 -13.1144,1.6109 -17.346,1.039 z m -4.3302,-0.9133 c 0.3598,-0.1451 0.7897,-0.1262 0.9553,0.04 0.1658,0.1657 -0.1281,0.2835 -0.6541,0.2618 -0.5808,-0.024 -0.6987,-0.1413 -0.3012,-0.301 z m -7.5598,-0.9994 c -0.1886,-0.1886 0.9964,-0.7539 2.6331,-1.2564 3.7195,-1.1418 6.5964,-3.3103 9.471,-7.1387 5.8914,-7.8467 10.9858,-11.3287 21.0244,-14.3706 3.1826,-0.9643 6.547,-2.0717 7.4765,-2.4607 1.6896,-0.7072 1.6893,-0.7074 -2.5879,-1.0789 -8.0641,-0.7006 -14.9302,1.3658 -19.8598,5.9766 -1.8948,1.7725 -3.1926,3.7578 -5.4858,8.3913 -3.4641,7 -5.153,8.6653 -10.4843,10.338 -3.4468,1.0813 -8.5146,1.3083 -10.5467,0.4723 -0.9448,-0.3887 -0.7717,-0.4299 0.8577,-0.2048 2.4647,0.3408 7.1325,-0.5623 10.1015,-1.9541 2.911,-1.3645 4.8032,-4.1244 6.3737,-9.297 1.8022,-5.9345 3.716,-9.5082 6.6787,-12.4708 2.4223,-2.4225 6.4896,-4.8576 9.6958,-5.805 0.8225,-0.2432 7.4392,-0.4436 14.704,-0.4457 h 13.2088 l 3.3859,-1.4323 c 1.8624,-0.7879 3.474,-1.3444 3.5814,-1.237 0.3513,0.3514 -5.8935,4.6669 -6.5425,4.5215 -0.9956,-0.2232 -7.3722,3.1768 -8.9584,4.7766 -0.7893,0.7963 -2.6578,3.7445 -4.1519,6.5517 -5.8422,10.976 -12.4136,14.6584 -31.1234,17.4407 -7.4707,1.1111 -8.9223,1.2166 -9.4518,0.6869 z m 13.4235,-4.3199 c 7.9948,-4.3941 11.1405,-6.2142 13.5835,-7.8592 2.8963,-1.9501 9.5268,-7.1114 9.3561,-7.2826 -0.2513,-0.2523 -10.2274,4.3608 -13.2075,6.1073 -1.7405,1.0201 -4.7632,3.3569 -6.7167,5.1925 -1.9536,1.8359 -4.3931,3.8458 -5.4211,4.4667 -1.6325,0.9858 -2.2506,1.5459 -1.7064,1.5459 0.09,0 1.94,-0.9768 4.1121,-2.1706 z m -82.5302,1.0101 c -2.0915,-0.5179 -1.7886,-0.5764 4.4859,-0.8679 7.9983,-0.3715 9.7626,-0.6887 13.7072,-2.4639 10.8677,-4.8909 14.6645,-14.8101 8.9064,-23.2685 -1.9675,-2.8902 -2.0093,-4.0576 -0.179,-5.0092 1.635,-0.8502 4.3122,-0.3609 6.3063,1.1524 3.7067,2.813 4.2084,10.298 1.1134,16.6118 -3.0945,6.3123 -9.9655,11.4196 -18.195,13.5245 -4.319,1.1045 -12.3358,1.2639 -16.1448,0.3208 z m -18.0622,-12.5535 c -2.3679,-0.8696 -5.6249,-3.1278 -7.83,-5.4284 -1.9537,-2.0384 -1.8891,-2.1166 0.7847,-0.9501 3.199,1.3956 10.9937,1.1652 15.5432,-0.4591 3.0022,-1.0719 3.6924,-1.1763 3.9166,-0.5917 0.7775,2.0257 -1.8891,6.3479 -4.62,7.489 -2.0687,0.8643 -5.3474,0.8392 -7.7945,-0.06 z m 72.2989,-29.9909 c 0.3598,-0.1432 0.7897,-0.1263 0.9553,0.039 0.1658,0.1658 -0.1281,0.2835 -0.6543,0.2619 -0.5806,-0.024 -0.6987,-0.1413 -0.301,-0.3012 z m 15.3361,-1.1991 c 1.0091,-1.1153 3.3866,-1.6748 4.4907,-1.0571 1.1179,0.6257 0.3329,1.0624 -2.7992,1.5574 -2.388,0.3776 -2.4654,0.3546 -1.6915,-0.5003 z m -12.252,-2.103 c 0,-0.2089 0.3508,-0.9156 0.7797,-1.57 0.4288,-0.6545 0.9113,-2.4647 1.072,-4.0228 0.2247,-2.1765 0.404,-2.6337 0.7738,-1.9728 0.8438,1.5078 0.1055,5.2155 -1.3249,6.645 -0.7153,0.7153 -1.3006,1.1297 -1.3006,0.9206 z m 8.9203,80.136 c 1.4728,-1.6776 1.5469,-1.9663 1.5469,-6.034 0,-6.9046 -1.6171,-11.8162 -5.2956,-16.0826 -1.6395,-1.9016 -5.7816,-5.0311 -6.6589,-5.0311 -0.162,0 1.1859,1.5141 2.9961,3.3644 4.5889,4.691 6.5788,8.8363 6.8658,14.3014 0.2671,5.0876 -0.1658,5.9794 -3.6875,7.5917 -1.7123,0.7838 -2.5823,1.452 -2.3718,1.8219 0.852,1.4984 1.4279,1.8301 3.1769,1.8301 1.5294,0 2.1704,-0.3295 3.4281,-1.7618 z m 63.229,-5.5881 c 1.5454,-2.0229 -0.2991,-5.6094 -2.8846,-5.6094 -2.5089,0 -3.4602,3.9977 -1.4336,6.0244 1.1797,1.1797 3.2523,0.9804 4.3182,-0.415 z m 40.5687,-2.596 c 3.3476,-1.2541 7.4922,-4.8368 8.857,-7.6564 1.6379,-3.3833 1.201,-9.7272 -0.7835,-11.3739 -0.7217,-0.5991 -0.7688,-0.5405 -0.4284,0.5322 2.1605,6.807 -4.7279,15.4868 -13.2854,16.7405 -4.1037,0.6013 -7.8878,-1.5738 -7.8878,-4.5336 0,-1.6256 0.681,-1.8494 2.1384,-0.703 1.2437,0.9785 3.5004,1.2816 5.0667,0.6804 1.0527,-0.4039 2.2651,-2.7802 2.2651,-4.4391 0,-0.7824 -0.586,-1.8954 -1.457,-2.7661 -3.78,-3.78 -11.5023,0.344 -11.5023,6.1425 0,7.1635 8.1528,10.6974 17.0172,7.3765 z m 13.8642,-6.8731 c 2.2482,-2.7133 3.1517,-6.3012 2.8989,-11.5108 -0.1149,-2.3749 -0.3875,-4.7666 -0.6049,-5.3148 -0.2174,-0.5484 0.3924,0.1356 1.355,1.522 2.2119,3.1829 4.909,5.5598 7.8117,6.8838 3.2348,1.4757 10.1409,1.4287 14.0221,-0.094 2.8917,-1.1352 7.5219,-4.2988 9.0893,-6.2102 4.2349,-5.1642 4.3029,-12.9047 0.1413,-16.1775 -1.2106,-0.9525 -1.2833,-1.2069 -0.8695,-3.0485 0.9514,-4.2342 -1.4108,-10.5727 -5.4427,-14.6044 -1.8141,-1.8143 -3.082,-2.5653 -5.69,-3.3708 -3.6824,-1.1375 -7.4458,-1.3193 -10.3886,-0.5022 -2.6416,0.7335 -5.7144,3.621 -6.1124,5.7437 -0.3806,2.028 0.7985,4.1892 2.2855,4.1892 0.8588,0 0.9071,-0.1488 0.4069,-1.246 -1.2564,-2.7576 1.7362,-5.0723 3.7054,-2.8661 0.4282,0.4798 1.0301,1.8173 1.3377,2.9723 0.6338,2.3811 -0.1243,4.909 -2.1101,7.0382 -2.8612,3.0673 -9.0869,4.5838 -14.892,3.6274 -5.4294,-0.8945 -10.3802,-2.0811 -10.3802,-2.4879 0,-0.1972 1.2897,-0.6354 2.866,-0.9735 4.2016,-0.9013 5.9419,-1.8089 6.8554,-3.5754 l 0.8138,-1.5738 -2.1523,1.2567 c -1.1838,0.6912 -4.1711,1.852 -6.6384,2.5794 -4.3956,1.2963 -4.6914,1.317 -14.704,1.0367 -5.6198,-0.1564 -11.1712,-0.096 -12.3364,0.1356 -1.1651,0.2321 -2.1184,0.2457 -2.1184,0.03 0,-0.5149 4.5251,-0.913 13.6212,-1.1986 6.502,-0.204 7.7127,-0.3794 10.0708,-1.459 2.1203,-0.9706 2.8414,-1.6122 3.4505,-3.0703 1.11,-2.6563 1.0028,-2.775 -1.3481,-1.4928 -3.1568,1.7216 -4.899,2.1568 -12.8991,3.2223 -4.0104,0.5341 -8.1146,1.315 -9.1206,1.7353 l -1.829,0.7643 1.0208,-1.298 c 2.5817,-3.2819 0.2898,-9.6666 -3.7413,-10.4227 -2.693,-0.5053 -5.1524,1.5909 -4.4527,3.795 0.4485,1.4137 2.0639,1.2364 2.4416,-0.2679 0.6758,-2.6928 4.1709,-0.7827 4.614,2.5216 0.3936,2.9338 -1.2168,4.5322 -8.715,8.65 -3.477,1.9095 -7.4433,4.4388 -8.814,5.6205 -3.4679,2.9899 -10.4484,10.3088 -10.1328,10.6241 0.1431,0.1432 2.3695,-1.1989 4.9474,-2.9825 6.7789,-4.6909 11.1454,-7.0766 15.5011,-8.4697 9.8328,-3.1446 16.3642,-1.7021 18.594,4.1068 0.5482,1.4284 1.1561,2.5996 1.3507,2.6028 0.1946,0 0.6262,-0.9037 0.9591,-2.015 1.0823,-3.6122 -0.6703,-5.9668 -5.3839,-7.2337 -2.3522,-0.6322 -2.3671,-0.6483 -0.6375,-0.681 2.6619,-0.051 6.7362,2.2154 8.896,4.948 1.9883,2.5151 2.6531,3.9081 3.5643,7.4667 0.5418,2.1158 0.6091,2.1798 1.3082,1.2462 1.1412,-1.5239 0.6721,-6.7771 -0.7803,-8.7418 -1.0382,-1.4042 -1.0531,-1.4991 -0.1602,-1.0214 0.5415,0.2897 2.0033,1.6601 3.2484,3.0449 1.7933,1.9945 2.4505,3.2422 3.1609,5.9996 0.4932,1.9147 1.127,3.4028 1.4084,3.3067 0.2886,-0.098 0.5115,-1.8023 0.5115,-3.912 0,-3.492 -0.1243,-3.9237 -1.8852,-6.5751 -1.9679,-2.9624 -5.5137,-5.6341 -9.8282,-7.4053 -3.2824,-1.3476 -0.7808,-0.8003 8.2069,1.7957 4.3767,1.2641 9.2664,2.5558 10.866,2.8704 6.1194,1.204 12.7552,-0.5252 16.5397,-4.3097 2.3829,-2.3829 3.2663,-4.5013 3.264,-7.8271 0,-4.3877 -2.6355,-7.3392 -5.976,-6.7006 l -1.2455,0.238 1.1746,-0.9512 c 1.6535,-1.3389 4.9505,-1.256 7.0779,0.1771 0.9214,0.6209 2.3564,2.0977 3.1891,3.2817 1.3564,1.9289 1.5138,2.5368 1.5138,5.8481 0,3.7875 0.6296,4.7841 1.727,2.7337 0.7554,-1.4116 0.6294,-6.7716 -0.2063,-8.7715 -0.9627,-2.3044 0.021,-2.353 2.2622,-0.1112 2.0873,2.0872 4.2831,6.833 4.8449,10.4706 l 0.4425,2.8659 h -1.7544 c -2.1088,0 -3.5775,1.1923 -3.5775,2.9042 0,2.6188 3.0366,3.9684 5.522,2.4541 0.8813,-0.5369 1.1497,-0.4679 1.9434,0.4998 1.1025,1.3444 1.7149,4.5196 1.266,6.5633 -0.6079,2.7679 -2.9779,5.3268 -6.5723,7.0963 -3.19,1.5704 -3.6856,1.6659 -8.6285,1.6622 -7.0981,0 -8.6108,-0.7749 -15.4621,-7.8652 -5.6264,-5.8227 -10.0683,-9.11 -15.3609,-11.3682 -3.8586,-1.6462 -5.7616,-1.8915 -2.8322,-0.365 2.8311,1.4753 8.1506,6.0968 10.3085,8.9562 5.1428,6.8138 5.7425,16.7033 1.4246,23.4987 -1.2092,1.903 -1.3219,2.2815 -0.5574,1.8725 0.5269,-0.282 1.6561,-1.3554 2.5095,-2.3853 z m 1.0188,-19.0688 c -0.2935,-0.5482 -0.4215,-0.9967 -0.2843,-0.9967 0.1375,0 0.4892,0.4485 0.7827,0.9967 0.2935,0.5484 0.4215,0.997 0.2843,0.997 -0.1375,0 -0.4892,-0.4486 -0.7827,-0.997 z m -3.7307,-4.8362 c -1.6406,-1.7984 -4.1047,-4.0253 -5.4762,-4.9488 -1.3713,-0.9235 -2.3004,-1.6791 -2.0647,-1.6791 0.9381,0 6.826,4.6193 8.4222,6.6077 3.5048,4.3661 3.092,4.3755 -0.8813,0.021 z m 16.9057,23.1145 c 0.3629,-1.0156 0.2638,-1.5229 -0.4512,-2.313 -1.1107,-1.2273 -2.1263,-1.2842 -3.3388,-0.1865 -0.933,0.8444 -1.1838,2.4828 -0.5301,3.4618 1.0456,1.5655 3.6223,0.9921 4.3201,-0.9617 z m -147.0348,-2.439 c 0.4267,-0.6093 0.776,-1.821 0.776,-2.6926 0,-1.2869 -0.2577,-1.6699 -1.3707,-2.0376 -0.754,-0.2489 -1.7844,-0.3625 -2.2901,-0.2523 -0.768,0.1677 -0.8645,0.4998 -0.5861,2.0239 0.3627,1.9856 1.507,4.0665 2.2362,4.0665 0.2523,0 0.808,-0.4985 1.2347,-1.1079 z m 150.3359,-13.3618 c 1.2003,-0.6422 2.4647,-3.0317 2.4647,-4.6573 0,-1.7689 -2.2416,-4.2076 -4.2063,-4.5763 -1.8956,-0.3555 -4.4409,0.7319 -5.2494,2.2426 -2.3298,4.3534 2.6378,9.3208 6.991,6.991 z m -213.3605,-1.7122 c 0,-0.1281 -0.5047,-0.4763 -1.1215,-0.7751 -1.077,-0.522 -1.083,-0.5127 -0.1545,0.2316 1.017,0.8148 1.2754,0.925 1.2754,0.5435 z m 245.3186,-6.5746 c 1.2068,-1.092 1.1553,-2.7873 -0.1187,-3.941 -0.9408,-0.8515 -1.1477,-0.8677 -2.3677,-0.1865 -2.3305,1.3021 -1.9219,4.9521 0.5545,4.9521 0.5615,0 1.4313,-0.3711 1.9326,-0.8249 z m -229.9585,-6.7762 c 0.1413,-1.2344 0,-1.3708 -1.3863,-1.3708 -1.7488,0 -2.4654,1.0953 -1.4875,2.2735 1.0126,1.22 2.6902,0.6931 2.8738,-0.9027 z m 219.7296,-9.0965 c 0.639,-1.3707 1.1656,-3.053 1.1701,-3.7384 v -1.2462 l 0.9871,1.4955 c 0.543,0.8223 1.3707,2.5607 1.8396,3.8628 0.9934,2.7584 1.6298,3.037 1.7078,0.7477 0.1412,-4.1238 -0.854,-6.5764 -4.0897,-10.0868 -2.1104,-2.2893 -4.5176,-3.2161 -8.5227,-3.2815 -3.2742,-0.053 -0.8445,-0.8833 2.7135,-0.9269 2.7132,-0.034 2.9713,0.073 4.8203,1.9781 1.0746,1.1073 2.6789,3.1821 3.5652,4.6106 0.8862,1.4287 2.1855,3.4635 2.8871,4.522 l 1.2757,1.9246 0.4337,-1.3016 c 0.6385,-1.9149 1.4615,-1.6016 3.0824,1.1739 0.795,1.3613 1.7769,2.6024 2.1817,2.7578 1.1582,0.4444 1.6559,-0.4467 1.0866,-1.9445 -0.5416,-1.4244 -0.7025,-3.787 -0.2579,-3.787 0.1432,0 1.0959,0.5231 2.1184,1.1627 4.9565,3.0996 10.0599,3.004 9.2291,-0.1733 -0.3726,-1.425 -1.5022,-1.9031 -4.3867,-1.8564 -1.3941,0.023 -3.3581,-0.3506 -4.4744,-0.8498 l -1.9898,-0.8899 2.5728,-0.9599 c 4.0927,-1.5266 7.1252,-5.6418 7.136,-9.684 0,-2.1329 -0.7041,-1.5985 -2.3238,1.7503 -1.8547,3.8342 -3.5792,5.2556 -7.0502,5.8106 l -2.1034,0.3365 1.2481,-2.1834 c 3.423,-5.9881 -0.7835,-8.4816 -4.5019,-2.6687 -0.9598,1.5005 -1.9067,2.7246 -2.1037,2.7201 -0.4388,-0.019 -3.2463,-1.7204 -6.1234,-3.7301 -1.7233,-1.204 -2.6396,-1.4905 -4.7025,-1.4707 -2.6973,0.026 -6.0314,1.5659 -7.9283,3.662 -0.9442,1.0433 -0.9417,1.0484 0.5332,1.0484 2.7124,0 6.5172,1.4461 7.7924,2.9613 l 1.2197,1.4494 -0.9169,2.6546 c -0.5042,1.46 -0.9241,3.8595 -0.9329,5.3323 -0.019,2.4379 0.058,2.6165 0.8106,1.9937 0.4548,-0.3762 1.3498,-1.8055 1.989,-3.1762 z m 6.642,-5.3583 c -1.8423,-1.2483 -2.7744,-2.8234 -1.1667,-1.9717 0.5115,0.2709 1.8234,0.864 2.9155,1.3176 1.5587,0.6477 1.8266,0.9257 1.2462,1.2927 -1.0249,0.6481 -1.1289,0.6258 -2.995,-0.6386 z m 4.2492,-3.3644 c -0.5484,-0.2357 -1.894,-0.4614 -2.9906,-0.5015 -1.0966,-0.04 -2.7789,-0.3904 -3.7384,-0.7782 l -1.7444,-0.7054 1.7444,0.3495 c 2.8844,0.5781 4.4558,0.3423 5.7364,-0.8608 0.9305,-0.8741 1.2675,-0.9784 1.4363,-0.4444 0.3721,1.1767 0.8293,3.4411 0.6872,3.404 -0.073,-0.019 -0.5827,-0.2277 -1.1309,-0.4632 z m -274.3897,8.9845 c -0.2755,-1.4524 -0.5047,-7.601 -0.5094,-13.6631 -0.019,-15.519 -1.1191,-19.9527 -5.8869,-23.5848 -1.7777,-1.3541 -2.5973,-1.6431 -4.6604,-1.6431 -2.1823,0 -2.7207,0.2172 -4.198,1.6945 -1.7418,1.742 -2.0817,3.1308 -1.1787,4.8178 0.7215,1.3481 3.7351,1.3267 4.5842,-0.032 1.5463,-2.4762 4.9086,0.1319 6.8539,5.3174 0.8517,2.2701 1.1917,4.709 1.5517,11.1313 0.2538,4.5233 0.6652,9.3457 0.9147,10.7164 0.4881,2.6841 2.4936,8.4235 2.8269,8.0901 0.1111,-0.1112 -0.023,-1.3912 -0.298,-2.8437 z m 227.6857,-2.1061 c 0.3289,-0.329 0.5981,-1.0691 0.5981,-1.6448 0,-2.1897 -2.9705,-3.1465 -3.9699,-1.279 -0.7011,1.3099 -0.6512,1.8202 0.2672,2.7386 0.9329,0.9329 2.2768,1.0129 3.1046,0.1846 z m -238.1554,-9.5639 c 0,-0.1074 -1.7224,-3.3026 -3.8274,-7.103 -13.6477,-24.6371 -20.5861,-43.7906 -23.8086,-65.7255 -3.8689,-26.3331 -1.0917,-63.8252 6.7337,-90.9072 7.3522,-25.4448 26.933,-57.4923 47.8182,-78.2635 16.8369,-16.745 38.9027,-30.8226 63.6043,-40.5783 33.2047,-13.114 67.7188,-15.1663 105.3673,-6.2653 14.0397,3.3192 34.1265,9.6774 39.7335,12.5769 0.8732,0.4516 1.8792,0.811 2.2354,0.7989 2.1431,-0.073 -10.9794,-5.5527 -21.7955,-9.1015 -32.288,-10.5944 -60.1313,-13.5809 -88.7091,-9.5153 -33.2282,4.727 -67.9022,21.0928 -95.7008,45.1695 -8.6212,7.4671 -21.115,21.5196 -28.4827,32.0362 -9.9474,14.1991 -19.743,33.4418 -24.5054,48.1386 -10.4579,32.2736 -13.0234,75.8557 -6.3339,107.5959 3.2178,15.2677 12.1686,37.4671 21.4147,53.1125 3.3473,5.664 6.2563,9.3982 6.2563,8.0311 z m 125.0972,-1.7889 c 1.3547,-1.3545 0.6955,-2.9952 -1.6795,-4.18 -2.1397,-1.0674 -8.4066,-1.9402 -12.3264,-1.7165 l -2.6802,0.1525 2.9645,0.9149 c 3.7768,1.1655 8.2255,3.4077 9.4491,4.7628 1.1921,1.3198 2.9909,1.3477 4.2725,0.066 z m 18.857,-1.8477 c 0.1149,-1.1895 -0.1036,-1.7243 -0.8723,-2.136 -1.5046,-0.8051 -3.0198,0.1545 -3.0198,1.9127 0,1.8033 0.3815,2.139 2.225,1.9583 1.2986,-0.1281 1.5352,-0.3735 1.6671,-1.735 z m -56.3855,-10.0465 c 3.553,-1.8125 4.9719,-4.581 3.6314,-7.0858 -0.7916,-1.4793 -3.359,-2.5804 -5.5326,-2.3732 -1.859,0.1771 -1.9293,0.1281 -1.9293,-1.3381 0,-2.0542 1.14,-3.5432 3.2444,-4.2378 3.7252,-1.2294 7.7409,2.5842 8.8175,8.3735 0.7016,3.7726 1.12,3.2666 1.8782,-2.2722 0.9011,-6.5811 0.1281,-9.0488 -3.9989,-12.7589 -7.2009,-6.4743 -18.7155,-4.2926 -22.3868,4.2414 -2.186,5.0819 -0.6835,9.6816 4.2093,12.8851 l 1.9033,1.246 -1.5774,0.1564 c -0.8673,0.087 -2.2461,-0.1771 -3.0639,-0.585 -0.8178,-0.4078 -1.4867,-0.5495 -1.4867,-0.3148 0,0.744 4.4046,4.07 6.3524,4.7969 2.5327,0.9452 7.3443,0.5899 9.9391,-0.7341 z m -64.7354,-13.2655 c 3.5758,-4.1873 7.009,-10.1978 8.3869,-14.6833 1.1049,-3.5965 1.2586,-4.8723 1.0807,-8.972 -0.2211,-5.1002 -0.8972,-7.0699 -3.3235,-9.6834 -1.2725,-1.3707 -3.5545,-2.8215 -4.4378,-2.8215 -0.2378,0 0.3104,1.5139 1.2183,3.3644 0.999,2.0365 1.7827,4.5448 1.9858,6.3551 l 0.3355,2.9906 -1.8451,-1.6199 c -1.603,-1.4073 -2.2047,-1.62 -4.5851,-1.62 -7.5938,0 -12.0406,5.8366 -6.9758,9.1553 l 1.2557,0.8227 -0.5103,-1.3423 c -1.6604,-4.3672 4.8001,-7.0576 8.708,-3.6263 2.242,1.9685 2.9747,4.2742 2.6676,8.3946 -0.2873,3.8542 -2.4332,9.0949 -5.7093,13.9436 -1.1793,1.7455 -2.1323,3.4276 -2.118,3.7384 0.019,0.3108 0.4069,0.019 0.8724,-0.6578 0.4653,-0.6726 1.8127,-2.3549 2.994,-3.7382 z m 80.8197,-2.9865 c 0.329,-0.3962 0.5245,-1.2372 0.435,-1.8692 -0.2988,-2.1069 -3.9013,-1.5926 -3.9013,0.5571 0,1.8333 2.3085,2.7073 3.4663,1.3121 z m -42.9781,-0.5778 c -0.1658,-0.1658 -0.5955,-0.1827 -0.9553,-0.04 -0.3977,0.1583 -0.2796,0.2773 0.301,0.3013 0.5256,0.023 0.8199,-0.096 0.6543,-0.2619 z m 2.602,-0.932 c 2.1429,-1.1081 4.8141,-4.5126 5.5207,-7.0364 0.7988,-2.8524 0.1017,-5.4529 -2.1491,-8.0163 -3.189,-3.6319 -7.6604,-4.5458 -12.0691,-2.4667 -2.9015,1.3682 -4.3843,2.8377 -5.459,5.4101 -1.5902,3.8058 -0.2186,8.1012 3.1328,9.8108 4.4782,2.2846 8.358,1.9683 11.6757,-0.9521 2.4928,-2.1941 3.507,-4.8694 2.8876,-7.6163 -0.9301,-4.123 -3.1623,-5.9704 -8.4989,-7.0334 -0.6853,-0.1357 -0.2366,-0.179 0.997,-0.096 3.2212,0.2195 5.639,1.401 7.2862,3.5609 1.2547,1.6448 1.4365,2.3083 1.4365,5.2436 0,2.9388 -0.1901,3.6307 -1.516,5.5173 -0.8338,1.1864 -2.404,2.66 -3.4891,3.2747 -2.1885,1.2396 -1.9941,1.557 0.2447,0.3992 z m -10.784,-4.2249 c -2.0467,-1.2479 -2.6488,-2.427 -2.6488,-5.1875 0,-1.6527 0.3222,-2.6202 1.2323,-3.7018 0.6778,-0.8055 1.1011,-1.5956 0.9406,-1.7559 -0.3261,-0.3263 2.78,-2.3468 3.5592,-2.3151 0.2743,0.019 -0.3638,0.4749 -1.4176,1.031 -2.3852,1.2583 -2.1239,1.7206 0.3809,0.6741 1.8219,-0.7613 2.6205,-0.707 5.4216,0.3683 1.7062,0.655 2.8426,2.7224 2.8426,5.171 0,5.0739 -5.9523,8.3735 -10.3108,5.7159 z m 9.7076,3.5174 c 1.0171,-0.5192 2.2979,-1.4555 2.8461,-2.0806 0.7434,-0.8477 0.3698,-0.7112 -1.4692,0.5371 -3.2595,2.2124 -6.5866,2.5506 -10.0463,1.0212 -2.558,-1.1305 -2.5218,-0.6506 0.051,0.6843 2.0772,1.0775 6.3466,0.9973 8.618,-0.162 z m 257.5517,-4.0426 c 0.7507,-0.8295 0.8066,-1.2123 0.3308,-2.2571 -0.7247,-1.5904 -1.8068,-2.0118 -3.3552,-1.3063 -0.869,0.396 -1.2143,0.9531 -1.2143,1.9596 0,2.5941 2.4899,3.5362 4.2387,1.6038 z m -320.7962,-3.2136 c 1.5949,-0.8247 3.3821,-4.4932 3.8493,-7.9009 0.243,-1.7735 -0.03,-2.9931 -1.4864,-6.6192 -1.952,-4.8632 -2.8109,-8.1184 -2.751,-10.4263 l 0.04,-1.4952 0.395,1.6715 c 0.6884,2.9125 2.0559,5.4233 3.2501,5.9676 l 1.1552,0.5263 -1.0378,-2.3382 c -1.1588,-2.6101 -1.4205,-7.3296 -0.6807,-12.272 l 0.4425,-2.9558 -2.3746,1.9459 c -1.3059,1.07 -3.6134,3.6212 -5.1279,5.6689 -3.6172,4.8911 -5.2051,6.3278 -8.9915,8.1342 -3.5511,1.6944 -5.201,1.87 -6.5028,0.692 -0.7993,-0.7234 -2.5609,-1.1373 -2.5609,-0.6015 0,0.1149 -0.1319,0.554 -0.2949,0.9766 -0.3728,0.9715 2.4854,2.7979 4.3831,2.8005 h 1.3469 l -1.2857,2.4783 c -2.5493,4.9135 -1.0514,9.9819 3.6683,12.4126 1.3697,0.7055 4.8958,0.7276 6.1832,0.04 0.853,-0.4567 0.8849,-0.6134 0.2521,-1.2462 -0.3983,-0.3981 -1.4201,-0.7238 -2.2708,-0.7238 -3.6265,0 -6.4994,-2.5184 -6.4994,-5.6972 0,-2.9675 1.4293,-5.0145 5.72,-8.1924 2.303,-1.7057 4.896,-3.9326 5.762,-4.9486 l 1.5749,-1.8471 -1.0815,1.7445 c -4.1602,6.7116 -5.3841,11.9927 -3.7632,16.2373 1.0186,2.6668 2.5722,3.8274 4.8325,3.61 2.2855,-0.2198 2.5933,-1.7913 0.4355,-2.2229 -2.1474,-0.4296 -3.5113,-2.3308 -3.5113,-4.8943 0,-2.1339 2.7199,-12.0981 3.5362,-12.9543 0.2745,-0.2882 0.4546,0.1017 0.4597,0.9967 0,0.8088 0.8087,3.3771 1.7872,5.7072 0.9783,2.3302 2.109,5.1185 2.5123,6.1961 1.1874,3.1711 0.019,7.7698 -2.4222,9.4746 -1.3966,0.9783 -0.789,1.0095 1.0578,0.055 z m -3.9403,-24.6384 c 0,-0.2741 0.2242,-0.6369 0.4983,-0.8065 0.2743,-0.1695 0.4984,-0.083 0.4984,0.1905 0,0.2741 -0.2241,0.6371 -0.4984,0.8065 -0.2741,0.1695 -0.4983,0.083 -0.4983,-0.1905 z m 29.2226,23.0417 c 0.4475,-1.7826 -0.3677,-2.9136 -2.0999,-2.9136 -1.1021,0 -1.5369,0.3069 -1.9007,1.3409 -0.6068,1.7256 0.2998,2.8959 2.2437,2.8959 1.1262,0 1.4945,-0.2773 1.7569,-1.3232 z m 11.6874,-1.2432 c 0.5612,-1.1002 1.4308,-3.6084 1.9323,-5.5736 4.8493,-19.0025 -0.3468,-41.0881 -10.9221,-46.4243 -3.0382,-1.5331 -7.8545,-2.5981 -8.5596,-1.8929 -1.1004,1.1003 0.1752,2.6161 3.9563,4.7002 6.4574,3.5596 10.4691,8.0519 12.5238,14.0243 1.3443,3.9074 3.0251,14.2086 3.0251,18.5398 0,5.701 -1.398,12.5217 -3.7717,18.4024 -0.7066,1.7503 0.7372,0.3384 1.8159,-1.7759 z m 289.2402,0.038 c 1.5135,-1.1906 1.6591,-2.2448 0.4884,-3.5383 -1.0237,-1.1311 -2.0632,-1.1588 -3.2479,-0.087 -1.1336,1.0258 -1.1688,2.5506 -0.087,3.7465 1.0399,1.149 1.2419,1.1403 2.8462,-0.1206 z m -231.6622,-5.1976 c 0.7563,-1.1543 0.7563,-1.3378 0,-2.4922 -0.4492,-0.6854 -1.1861,-1.246 -1.6381,-1.246 -1.2,0 -2.6446,1.4852 -2.6446,2.719 0,2.4225 2.9095,3.115 4.2827,1.0192 z m -22.4682,-5.257 c 0.6774,-2.1346 -2.2784,-3.3666 -3.9844,-1.6606 -1.0671,1.067 -0.7847,2.2648 0.7098,3.0099 1.4385,0.7171 2.7962,0.1582 3.2746,-1.3493 z m 256.8394,1.419 c 0.834,-0.834 0.7465,-2.6458 -0.1639,-3.4016 -0.5831,-0.4839 -1.0524,-0.5007 -1.9937,-0.072 -1.9988,0.9107 -1.4071,4.0715 0.7624,4.0715 0.4385,0 1.0666,-0.269 1.3955,-0.5982 z m -307.9889,-4.7983 c -1.5361,-0.7328 -3.4776,-1.6224 -4.3144,-1.9765 -2.0195,-0.8549 -3.2118,-3.4247 -3.0005,-6.4664 0.1526,-2.1985 0.202,-2.2746 0.72,-1.114 0.4895,1.0966 3.1535,3.4892 3.885,3.4892 0.1488,0 0.2694,-0.7519 0.2694,-1.6708 0,-0.919 0.5092,-2.4331 1.1314,-3.3645 2.6557,-3.9753 7.7768,-4.5115 12.2686,-1.2844 1.4025,1.0077 2.5502,1.7128 2.5502,1.5672 0,-1.1561 -2.8745,-5.4679 -4.7393,-7.1095 -5.3683,-4.7254 -12.9496,-4.7465 -16.9161,-0.047 -6.4196,7.6057 -2.9147,17.501 6.7021,18.921 4.007,0.5919 4.2839,0.4107 1.4436,-0.9444 z m -33.5666,-6.2959 c 1.679,-0.7015 7.3646,-4.808 7.9352,-5.7315 0.1545,-0.2486 -0.3457,-0.1394 -1.1094,0.2408 -2.1998,1.0973 -9.4309,2.8974 -10.2999,2.5639 -1.1222,-0.4306 -0.9952,-2.9836 0.202,-4.0672 0.8419,-0.7619 1.5244,-0.8476 4.5295,-0.5682 3.8593,0.3587 6.265,-0.1036 8.8657,-1.7008 2.213,-1.3596 1.8174,-1.6033 -1.1521,-0.7096 -2.0173,0.6071 -3.155,0.6305 -6.8345,0.1413 -5.5776,-0.7427 -7.4412,-0.064 -8.9023,3.2383 -1.0141,2.2925 -0.8762,3.965 0.4544,5.51 1.5887,1.8443 3.6457,2.1975 6.3114,1.0836 z m 48.8833,-11.528 c -2.5295,-7.4236 -8.7388,-12.6732 -14.98,-12.6647 -5.1754,0 -9.5842,2.9978 -10.1012,6.8522 -0.1563,1.1645 -0.1639,2.1169 -0.019,2.1169 0.145,0 1.4116,-0.7716 2.8132,-1.7148 7.1973,-4.8435 17.8757,-1.636 21.8674,6.5685 1.1151,2.2917 1.3626,1.6088 0.4197,-1.1581 z m -40.3426,-0.5199 c 0.4163,-1.0851 -0.6788,-3.1757 -1.6637,-3.1757 -1.1459,0 -2.6668,1.4493 -2.6668,2.5414 0,1.3407 1.925,2.515 3.096,1.8884 0.5212,-0.279 1.0768,-0.8434 1.2345,-1.2541 z m 12.5272,-4.1867 c -0.8054,-1.0893 -0.9789,-1.8455 -0.7487,-3.2638 0.763,-4.7014 5.2016,-8.0229 11.4253,-8.5496 3.1118,-0.2634 3.4089,-0.3661 2.123,-0.734 -2.6454,-0.7567 -7.4308,-0.5746 -9.2632,0.3527 -4.2438,2.1474 -6.3489,5.83 -6.0145,10.5218 0.1055,1.4822 1.9566,3.6928 2.8159,3.3631 0.5766,-0.2214 0.5131,-0.5392 -0.3378,-1.6902 z m 11.0135,-8.4373 c 0.6625,-0.019 1.0702,-0.1564 0.9059,-0.3207 -0.4626,-0.4627 -4.153,0.2898 -5.1797,1.0563 -0.7652,0.5712 -0.5861,0.5689 1.0755,-0.019 1.0966,-0.3849 2.5359,-0.7095 3.1983,-0.7215 z m 5.649,-0.3521 c -0.3427,-0.1376 -0.9034,-0.1376 -1.246,0 -0.3427,0.1375 -0.062,0.2515 0.623,0.2515 0.6853,0 0.9656,-0.1131 0.623,-0.2515 z m 31.3602,-19.5644 c 0.2834,-0.7766 6.9453,-6.0298 8.9326,-7.0435 1.766,-0.901 3.4454,-2.6604 3.4454,-3.6095 0,-0.2304 -0.6167,-0.3487 -1.3707,-0.2628 -0.9886,0.1131 -2.891,1.7193 -6.8249,5.7637 -2.9997,3.0841 -5.2053,5.6074 -4.9012,5.6074 0.304,0 0.6275,-0.205 0.7188,-0.4553 z m 4.699,-7.785 c 3.9429,-5.3735 5.117,-6.6231 3.1466,-3.3484 l -1.1248,1.869 1.2944,-1.1717 c 1.9573,-1.772 4.3724,-7.1991 4.3129,-9.6916 l -0.051,-2.096 -0.4604,1.9641 c -0.2532,1.0804 -0.5192,2.0233 -0.5913,2.0953 -0.1583,0.1582 -0.3127,-6.2362 -0.4143,-17.2682 -0.06,-6.4969 0.1564,-9.5678 1.029,-14.6207 1.3098,-7.5836 3.822,-16.9907 5.9992,-22.4654 2.8793,-7.2399 10.8974,-22.4692 15.3942,-29.2391 12.2567,-18.4523 31.3027,-36.9318 48.7404,-47.2901 25.1086,-14.9152 47.1778,-20.2644 79.4373,-19.2549 5.894,0.1847 11.2772,0.4652 11.9626,0.6236 0.8262,0.1912 1.0783,0.1206 0.7477,-0.2067 -1.5069,-1.4967 -14.2351,-3.1227 -24.4427,-3.1227 -14.0965,0 -27.2297,2.061 -40.1697,6.3038 -8.0869,2.6516 -24.7445,10.6991 -32.0852,15.5011 -18.7583,12.2704 -39.6877,34.3777 -50.8086,53.6676 -9.1709,15.9075 -13.8502,27.8309 -16.4807,41.9936 -1.2754,6.8666 -2.5216,19.7487 -1.9933,20.6036 0.8445,1.3664 -0.8657,0.1375 -4.0628,-2.9179 -4.418,-4.2231 -5.8665,-6.8481 -5.5124,-9.9902 0.2395,-2.1239 0.2133,-2.1878 -0.4257,-1.0337 -0.983,1.7755 -0.8676,5.2162 0.2468,7.3558 0.5295,1.0171 1.8921,2.9593 3.0277,4.3161 3.2067,3.8312 4.3819,6.2021 5.035,10.1573 0.4639,2.8079 0.4689,4.3777 0.023,6.8021 -0.6046,3.2808 -3.6587,11.135 -5.6274,14.4715 -1.9637,3.3285 -0.13,1.4208 3.8533,-4.0072 z m -28.1986,-2.7442 c 0.7532,-1.4074 0.1583,-2.9106 -1.2959,-3.2755 -1.4837,-0.3724 -2.7017,0.5335 -2.7017,2.0095 0,2.2596 2.9636,3.1981 3.9976,1.266 z m 8.4351,-3.4422 c 0.5823,-0.3685 0.6081,-0.6993 0.1356,-1.7369 -0.3212,-0.705 -0.7856,-1.2818 -1.032,-1.2818 -0.8639,0 -1.6463,1.4571 -1.3255,2.4682 0.3483,1.0974 1.0738,1.2771 2.2222,0.5505 z m -19.9407,-10.0347 c 1.5936,-3.7044 1.1848,-4.1077 -0.4672,-0.4607 -0.9766,2.1562 -1.4524,3.9902 -1.4227,5.483 l 0.045,2.2429 0.4086,-2.4375 c 0.2245,-1.3406 0.8711,-3.5131 1.4366,-4.8277 z m -26.2943,-14.3539 c 3.9804,-3.5564 -0.2854,-9.7679 -5.0251,-7.317 -1.8674,0.9657 -2.5432,2.1623 -2.5432,4.5023 0,4.0021 4.4056,5.6407 7.5683,2.8147 z m 52.9566,-18.2919 c 1.023,-1.0229 0.9887,-1.564 -0.1375,-2.1664 -1.0561,-0.5652 -2.0702,0.1544 -2.0702,1.4711 0,1.5919 0.9968,1.9059 2.2073,0.6953 z m -43.5955,-7.1589 c 0.7331,-1.3698 0.6498,-1.8927 -0.4809,-3.0234 -1.3553,-1.3553 -2.8002,-1.2526 -3.7975,0.2696 -1.2649,1.9302 -0.2913,3.7178 2.0248,3.7178 1.2077,0 1.895,-0.2939 2.2536,-0.964 z m 47.7204,-9.1294 c 1.1309,-2.4822 -1.4439,-4.8325 -3.3774,-3.083 -1.0847,0.9817 -1.2588,2.7105 -0.363,3.6063 1.022,1.022 3.1736,0.721 3.7404,-0.5233 z m -0.9912,-18.4573 c 2.177,-4.1445 4.6497,-6.7429 7.9991,-8.4056 1.8897,-0.9382 3.1636,-1.1724 6.3848,-1.1733 3.5822,0 4.2574,0.1526 6.1516,1.4069 1.1703,0.7744 2.2004,1.3353 2.2891,1.2461 0.088,-0.088 -0.1488,-0.8984 -0.5273,-1.7987 -1.3464,-3.2005 -7.7508,-4.5842 -13.3787,-2.8904 -3.2523,0.9789 -7.3477,4.2732 -8.9332,7.1864 -1.3411,2.4639 -3.1002,8.779 -2.3096,8.2902 0.2408,-0.1488 1.2865,-1.8863 2.3242,-3.8616 z m 31.5946,-22.9177 c 1.9692,-1.3091 3.649,-4.4574 4.4527,-8.3446 0.3116,-1.5077 0.801,-3.19 1.0876,-3.7382 0.2865,-0.5484 0.343,-0.8296 0.1262,-0.6252 -0.3135,0.2944 -2.2277,-3.0809 -2.2277,-3.9281 0,-0.1149 0.6661,0.1375 1.48,0.5578 3.396,1.7562 10.5103,1.7402 13.2114,-0.03 3.1766,-2.0813 2.4014,-5.8926 -1.1388,-5.5983 -1.7256,0.1431 -1.8485,0.2658 -1.9916,1.9841 -0.2039,2.449 -0.9599,2.9514 -4.5185,3.0019 -4.303,0.06 -7.9581,-1.8066 -10.7059,-5.47 -1.1378,-1.5169 -2.9096,-3.7014 -3.9376,-4.8545 -1.0283,-1.1532 -1.8692,-2.2398 -1.8692,-2.4148 0,-0.6869 2.0809,-0.2434 6.6941,1.4265 5.7044,2.0649 9.3305,2.2845 12.463,0.755 3.6852,-1.7993 5.3986,-6.1487 3.4936,-8.8685 -1.1898,-1.6987 -1.7162,-1.3325 -1.7162,1.194 0,2.009 -0.246,2.5476 -1.9351,4.2366 -1.8121,1.8121 -2.121,1.9346 -4.8598,1.9246 -1.8899,0 -4.1592,-0.4661 -6.4139,-1.2982 -11.6594,-4.3031 -20.3158,-5.5951 -26.4192,-3.9429 -1.7872,0.4838 -3.3723,1.0783 -3.5225,1.3211 -0.1507,0.2444 1.8078,0.4414 4.3872,0.4414 7.2629,0 12.2548,1.6731 16.3183,5.4689 1.5636,1.4606 1.6017,1.5793 0.7927,2.4732 -0.4674,0.5163 -1.4871,1.2028 -2.2663,1.5255 -1.982,0.8212 -2.9196,3.1936 -1.9487,4.9311 0.5673,1.0154 1.1722,1.3351 2.7447,1.4515 2.6973,0.1993 4.0914,-0.9806 4.5778,-3.874 l 0.3747,-2.2296 1.0448,1.4819 c 3.1293,4.4378 4.3504,9.366 3.1912,12.8783 -0.3728,1.1294 -1.6238,2.7177 -3.296,4.1839 -2.8908,2.5354 -3.1434,3.1026 -1.9244,4.3216 1.0772,1.0774 2.2596,0.9821 4.2521,-0.3424 z m 10.3236,-8.4571 c 0.1243,-1.0856 -0.1752,-1.5608 -1.4952,-2.3657 -2.2341,-1.3621 -2.3997,-1.3012 -2.3997,0.8833 0,2.2494 0.7811,3.1866 2.4888,2.9871 0.9446,-0.1112 1.2878,-0.4778 1.4061,-1.5047 z m -28.8168,0.096 c 0,-1.3944 -1.3325,-1.7816 -2.4992,-0.7258 -1.2221,1.106 -0.8462,1.7384 1.0331,1.7384 1.1413,0 1.4661,-0.2244 1.4661,-1.0126 z m -28.0125,-2.0777 c 1.4031,-1.4031 0.1714,-4.1711 -1.6921,-3.8045 -2.1634,0.4256 -2.2022,4.4026 -0.043,4.4026 0.6252,0 1.4061,-0.2692 1.735,-0.5981 z m 79.0777,-14.0364 c 0.1187,-0.5864 0.3146,-2.1429 0.4357,-3.4586 0.1206,-1.3157 0.335,-2.507 0.4753,-2.6474 0.1413,-0.1413 1.5685,-0.3841 3.1736,-0.5414 3.0664,-0.3007 4.1647,-0.8167 4.1647,-1.9566 0,-0.507 -0.7828,-0.6867 -2.9907,-0.6867 -1.6448,0 -2.9906,-0.1676 -2.9908,-0.3739 -2e-4,-0.2056 1.1774,-1.4161 2.6169,-2.69 2.9731,-2.6318 2.9008,-3.7325 -0.1149,-1.7371 -1.1021,0.7292 -2.0039,1.1546 -2.0037,0.9451 2e-4,-0.2095 0.421,-1.5024 0.9353,-2.8731 1.7027,-4.5377 1.7292,-4.7351 0.6339,-4.7351 -0.7754,0 -1.2234,0.7019 -2.0679,3.2399 -0.593,1.7817 -1.1448,3.2399 -1.226,3.2399 -0.081,0 -0.1394,-2.0163 -0.1262,-4.4808 0.019,-3.9942 -0.1376,-4.7902 -1.4376,-7.3326 -1.8681,-3.6527 -4.6183,-5.6761 -8.1796,-6.0184 -2.5636,-0.2463 -2.5668,-0.2448 -2.4027,1.1391 0.1432,1.2042 0.4887,1.468 2.6385,2.0111 4.8118,1.2158 7.2658,5.7691 7.2224,13.4013 l -0.023,4.0217 -1.3916,-3.0052 c -1.7665,-3.8143 -5.0424,-6.2181 -5.0424,-3.6999 0,1.3421 2.9997,5.9984 4.7523,7.3771 0.7598,0.5975 1.2507,1.2169 1.0911,1.3765 -0.2969,0.2971 -3.9026,-0.3913 -5.4694,-1.0442 -0.6104,-0.2542 -0.8724,-0.1338 -0.8724,0.4037 0,0.8954 2.2892,2.6361 4.464,3.3942 1.5024,0.5237 1.5173,0.5646 1.5173,4.1353 0,1.9837 0.1337,3.7406 0.298,3.9045 0.5516,0.5516 1.7026,-0.2329 1.92,-1.3084 z m 17.111,-16.3934 c -0.1356,-1.7134 -0.083,-3.564 0.1168,-4.1122 0.305,-0.8341 0.4563,-0.6712 0.9261,0.9968 0.3088,1.0966 0.7737,2.3237 1.0331,2.7271 0.8261,1.2846 1.2048,0.09 0.6055,-1.9093 -0.7272,-2.4272 -0.7471,-3.6521 -0.04,-2.4378 0.5792,0.9947 3.3979,2.5851 3.8248,2.1582 0.1545,-0.1563 -0.1451,-0.7575 -0.6695,-1.3379 -0.938,-1.0392 -0.9245,-1.0384 0.9212,0.049 1.1154,0.6572 2.2243,0.9688 2.741,0.7707 0.666,-0.2557 0.1714,-0.7025 -2.1226,-1.921 -1.6446,-0.8734 -2.9397,-1.8121 -2.878,-2.0862 0.062,-0.2743 1.1778,-0.6108 2.4798,-0.7477 2.2945,-0.2416 2.327,-0.2675 1.0535,-0.8414 -0.7225,-0.3257 -2.1073,-0.7411 -3.077,-0.9229 l -1.7633,-0.3308 1.2004,-1.9018 c 0.6603,-1.0459 1.3398,-2.4565 1.5101,-3.1347 0.5337,-2.1264 -0.5778,-1.9129 -2.0338,0.3905 -1.4297,2.2618 -2.2235,2.4986 -2.2235,0.6631 0,-1.9114 -1.1575,-7.3396 -1.5177,-7.1169 -0.1959,0.1206 -0.518,2.3765 -0.7157,5.0121 l -0.3592,4.792 -1.5697,-1.5101 c -1.6342,-1.5719 -4.3112,-2.6017 -4.3112,-1.6582 0,0.2899 0.7144,1.1947 1.5873,2.0106 1.4184,1.3257 1.5111,1.5755 0.8723,2.349 -0.3932,0.4761 -1.3879,1.2771 -2.2104,1.7799 l -1.4952,0.9143 h 1.8396 c 2.7578,0 2.7299,0.8132 -0.077,2.2354 -1.3809,0.6998 -2.5107,1.4099 -2.5107,1.5779 0,0.6531 4.5795,-0.2526 5.503,-1.0883 1.4027,-1.2694 1.2245,-0.1948 -0.5512,3.3228 -0.8404,1.6647 -1.3832,3.1717 -1.2063,3.3486 0.1771,0.177 1.0919,-0.5187 2.0331,-1.5458 0.9414,-1.0272 1.8206,-1.8675 1.954,-1.8675 0.1337,0 0.2424,1.0092 0.2424,2.243 0,1.343 0.2274,2.2429 0.5667,2.2429 0.3892,0 0.4894,-0.9758 0.3201,-3.1151 z m -3.8774,-9.0583 c 1.3888,-0.8366 2.4811,-1.0549 1.7196,-0.3436 -0.2603,0.2434 -1.0342,0.5891 -1.7196,0.7684 l -1.246,0.3261 z m -53.4287,8.7883 c 0.2095,-2.0879 -1.4009,-3.0366 -3.1777,-1.8724 -1.47,0.963 -1.5384,1.9413 -0.2276,3.2521 1.4073,1.4071 3.1986,0.6812 3.4053,-1.3797 z m 19.7168,-0.1394 c 1.0271,-0.8078 1.3132,-1.4668 1.3132,-3.0234 0,-2.7107 -0.687,-3.7861 -2.7896,-4.3667 -3.4366,-0.9489 -6.0685,1.3517 -5.5133,4.8192 0.5444,3.4015 4.2166,4.7522 6.9897,2.5709 z m 63.0502,-9.6381 c 7.5623,-2.0395 16.7857,-4.1084 20.3813,-4.5718 1.4393,-0.1846 2.6169,-0.5661 2.6169,-0.846 0,-1.2402 -16.8123,0.6563 -21.5583,2.4319 -6.32,2.3642 -6.3924,2.3795 -8.1939,1.728 -1.4947,-0.5404 -1.847,-0.5079 -2.6821,0.248 -0.5288,0.4785 -0.9613,1.2838 -0.9613,1.7894 0,1.4188 3.1116,1.1856 10.3974,-0.7795 z m -0.927,-3.4682 c 0,-0.1 -0.8794,-0.7649 -1.9542,-1.476 -2.4498,-1.6213 -3.0272,-3.1339 -1.5826,-4.1457 0.5746,-0.4024 1.0446,-1.0278 1.0446,-1.3899 0,-0.3621 0.3391,-0.9399 0.7537,-1.284 1.296,-1.0756 -0.094,-2.1414 -2.3917,-1.8332 -2.7627,0.3703 -3.845,1.5387 -3.845,4.1507 0,2.9624 1.9683,5.1857 5.0288,5.6808 1.2093,0.1956 2.3669,0.3836 2.5724,0.418 0.2058,0.034 0.374,-0.021 0.374,-0.1205 z m 61.4853,260.81 c -3.1152,-0.5587 -6.7055,-2.5826 -9.0021,-5.074 -3.4128,-3.7025 -3.8851,-4.9572 -3.8851,-10.3197 0,-4.252 0.1375,-4.9698 1.3515,-7.0345 1.5623,-2.6574 4.0141,-4.945 7.0112,-6.5414 1.7315,-0.9223 2.8996,-1.1217 6.5905,-1.1245 3.0323,0 4.8896,0.2317 5.7321,0.7227 1.2388,0.7222 1.2324,0.7285 -1.1352,1.0821 -4.4891,0.6706 -8.203,3.6684 -10.0307,8.0967 -1.2121,2.9362 -1.0382,8.0002 0.3786,11.0295 1.4987,3.2037 5.0609,6.4843 7.8726,7.2497 3.7475,1.0201 3.7713,1.0331 2.6655,1.4519 -1.6592,0.6283 -5.3585,0.8543 -7.5489,0.4615 z m -49.9666,-15.1092 c -0.8905,-0.4811 -1.5462,-0.5096 -2.5976,-0.113 -1.6833,0.6354 -2.2113,0.2641 -1.5041,-1.0571 0.4195,-0.7842 0.2837,-1.1923 -0.7074,-2.1233 -1.6081,-1.5107 -1.5478,-1.9758 0.2558,-1.9758 1.1558,0 1.6597,-0.3427 2.2867,-1.5551 l 0.8042,-1.5553 0.9459,1.5553 c 0.6669,1.0968 1.3257,1.5551 2.2354,1.5551 h 1.2895 l -1.0069,1.2801 c -0.8353,1.0621 -0.9118,1.4888 -0.4484,2.5057 0.7381,1.6202 0,2.3232 -1.5531,1.4832 z m -22.3598,-13.0756 c -0.8305,-0.3351 -0.7937,-1.8985 0.062,-2.6082 1.5461,-1.2831 3.1433,0.905 1.7081,2.3401 -0.6375,0.6375 -0.7948,0.6613 -1.7695,0.2681 z m 136.1923,-17.1364 c -0.4084,-1.2871 0.2975,-2.1339 1.5738,-1.8881 0.6055,0.1168 0.9252,0.6065 0.9252,1.4175 0,1.6681 -1.9994,2.0445 -2.499,0.4706 z m -144.9633,-0.3538 c -0.1281,-0.2065 0.079,-1.272 0.4614,-2.3679 1.0747,-3.0886 0.9044,-3.5569 -2.1233,-5.8392 l -2.8317,-2.1346 3.3283,-0.289 c 1.8305,-0.1583 3.4904,-0.451 3.6884,-0.649 0.198,-0.198 0.7115,-1.526 1.141,-2.9509 0.4294,-1.425 0.9637,-2.5909 1.1873,-2.5909 0.2234,0 0.9012,1.2337 1.5059,2.7414 l 1.0998,2.7416 2.9622,0.1526 c 1.6292,0.083 3.1297,0.3184 3.3345,0.5218 0.2048,0.2035 -0.7545,1.2292 -2.1318,2.2795 -1.6538,1.2613 -2.4255,2.184 -2.2731,2.7181 0.1262,0.4446 0.5053,1.7631 0.8408,2.9299 0.3355,1.1669 0.4879,2.2439 0.3385,2.3931 -0.1488,0.1489 -1.3505,-0.4127 -2.6696,-1.2492 -1.3189,-0.8364 -2.5462,-1.5208 -2.7273,-1.5208 -0.1808,0 -1.3575,0.7852 -2.6142,1.7448 -1.2568,0.9597 -2.3895,1.5759 -2.5171,1.3694 z m -90.8409,-18.566 c 0.3892,-6.9466 2.3169,-12.4481 6.2524,-17.8433 1.7501,-2.3995 5.6177,-5.0849 7.3229,-5.0849 1.2718,0 2.6721,1.7052 2.6721,3.254 0,0.571 -0.4672,2.4219 -1.0382,4.1127 -0.915,2.7095 -1.4178,3.3727 -4.2349,5.5868 -3.667,2.8816 -6.9089,6.8111 -9.4635,11.4699 l -1.7763,3.2399 z m 57.3797,1.62 c 0.9386,-2.2328 0.7643,-3.0114 -1.3735,-6.1392 -5.2168,-7.6323 -16.3563,-12.6067 -26.2284,-11.7121 -4.4895,0.4068 -9.6594,1.5535 -11.6535,2.5845 -0.7951,0.4113 -1.6955,0.6647 -2.0004,0.5629 -1.1588,-0.3862 5.3601,-3.8222 9.2584,-4.8798 3.5758,-0.9702 4.8356,-1.0687 10.3044,-0.8065 8.7936,0.422 13.5385,1.8553 18.145,5.481 2.6216,2.0636 6.1713,6.9767 6.5679,9.0904 0.1771,0.9446 0.5184,1.8389 0.7584,1.9871 0.24,0.1489 0.2886,-0.1149 0.1074,-0.5857 -0.2227,-0.5802 -0.1413,-0.7394 0.2551,-0.4948 0.3206,0.1981 0.5831,1.1322 0.5831,2.0756 0,2.1717 -1.4681,3.7088 -3.5425,3.7088 -1.2823,0 -1.4856,-0.1507 -1.1819,-0.8722 z m -117.4369,-7.0561 c -6.1487,-1.9811 -8.6332,-9.7884 -5.2848,-16.6071 1.7814,-3.6274 4.4256,-5.8931 10.0631,-8.6225 10.8179,-5.2373 18.9256,-5.3822 28.9267,-0.5169 3.4275,1.6674 5.1737,2.8823 6.8968,4.799 2.5461,2.8318 2.9794,3.9186 1.0612,2.6619 -0.6853,-0.4491 -1.2462,-1.0262 -1.2462,-1.2822 0,-0.7119 -6.8226,-3.7762 -10.4671,-4.7014 -4.8868,-1.2405 -10.9538,-0.772 -15.0399,1.1612 -5.2826,2.4992 -8.8492,6.9901 -8.8744,11.174 -0.019,1.5535 0.2421,1.9693 1.7175,2.8398 2.1458,1.266 2.6158,2.9115 1.5018,5.259 -1.4605,3.0779 -5.8978,4.9167 -9.2547,3.8352 z m 5.747,-5.6405 c 0.9933,-1.4184 0.9805,-2.3258 -0.049,-3.4635 -1.619,-1.7891 -4.1596,-0.6916 -4.1596,1.797 0,0.9796 1.7552,2.7742 2.7132,2.7742 0.3958,0 1.0687,-0.4985 1.4954,-1.1077 z m 116.6636,3.1561 c -1.0966,-0.5062 -3.7881,-2.4743 -5.9813,-4.3733 -2.1932,-1.8989 -4.8288,-3.9655 -5.8568,-4.5921 -1.028,-0.6266 -1.8692,-1.2127 -1.8692,-1.3021 0,-0.09 1.3522,0.2464 3.0048,0.7467 1.6525,0.5004 3.9149,1.0637 5.0273,1.2515 1.1122,0.1884 4.4143,1.4962 7.3379,2.907 5.1435,2.4824 5.4553,2.5653 9.6401,2.5658 4.0669,4e-4 4.2783,0.053 3.546,0.8623 -2.3846,2.6387 -10.9159,3.75 -14.8488,1.9342 z m 186.348,-7.7804 c -0.4402,-1.1475 0.1771,-2.243 1.266,-2.243 1.0116,0 1.8466,1.6002 1.298,2.4877 -0.4742,0.7675 -2.2401,0.5989 -2.564,-0.2447 z m -190.112,-2.9654 c -0.9736,-0.3587 -5.2899,-1.1347 -9.5918,-1.7244 -9.7677,-1.3386 -12.0462,-2.1427 -5.0866,-1.7945 2.7414,0.1375 7.1434,0 9.7822,-0.3165 5.7273,-0.6754 6.833,-0.4606 8.3772,1.628 1.129,1.5273 1.1394,1.6175 0.2603,2.2603 -1.0937,0.7997 -1.4402,0.7948 -3.7413,-0.053 z m -34.8652,-2.8121 c 0.6853,-0.5861 3.1739,-2.034 5.5304,-3.2177 2.3564,-1.1838 5.5433,-3.303 7.0821,-4.7095 2.5583,-2.338 2.9106,-2.9269 4.1161,-6.8787 2.4789,-8.1278 5.1243,-11.9555 9.6887,-14.0191 3.5153,-1.5894 4.6377,-1.239 1.5258,0.4763 -3.4603,1.9072 -4.3887,2.7647 -5.6336,5.2038 -0.7942,1.5563 -2.8704,7.8149 -2.8704,8.6528 0,0.094 1.3194,-1.1704 2.932,-2.8083 3.2934,-3.3448 8.5523,-6.2365 13.0182,-7.1585 2.4256,-0.5007 9.9255,-0.2084 9.3526,0.3645 -0.1073,0.1074 -1.9266,0.5271 -4.042,0.932 -4.7044,0.9001 -8.4825,2.8589 -13.6121,7.0575 -5.2733,4.3164 -11.6299,8.8944 -14.098,10.1534 -1.1132,0.5681 -2.0242,1.1288 -2.0242,1.246 0,0.3464 3.1749,-0.8214 3.9876,-1.4668 0.4112,-0.3267 2.0934,-1.3351 3.7384,-2.2413 1.6448,-0.9059 5.7266,-3.53 9.0706,-5.8311 7.8443,-5.3975 10.2807,-6.4817 16.5419,-7.3603 4.2011,-0.5897 5.5062,-0.6025 7.541,-0.075 3.023,0.7843 6.1469,2.8878 7.4716,5.0309 1.447,2.3415 1.2213,2.6546 -0.6252,0.8673 -2.9848,-2.8887 -6.7739,-3.7751 -10.88,-2.5447 -2.6941,0.8071 -5.1149,2.9784 -7.9,7.0858 -2.9658,4.3738 -4.0952,5.4427 -7.2699,6.8797 -2.2634,1.0247 -3.5124,1.1543 -13.95,1.4476 -11.9387,0.3357 -14.124,0.6891 -18.0702,2.9219 l -1.8676,1.0567 z m 23.4267,-6.5293 c 5.6469,-1.0682 7.7063,-2.2085 12.948,-7.1702 2.7296,-2.5836 4.7747,-4.6975 4.5447,-4.6975 -0.2299,0 -2.3982,1.4764 -4.8182,3.2806 -5.3574,3.9942 -6.8566,4.7896 -14.1699,7.5184 -5.8713,2.1909 -5.5712,2.4053 1.4954,1.0687 z m -27.6969,4.4563 c 0.4044,-3.0762 0.6546,-3.4044 2.1561,-2.8285 l 1.1258,0.432 -1.5424,2.5067 c -0.8483,1.3786 -1.6642,2.5067 -1.8132,2.5067 -0.1488,0 -0.1149,-1.1776 0.074,-2.6169 z m 6.378,-1.8771 c 4.4081,-3.929 4.8617,-4.9446 4.9201,-11.0165 l 0.049,-5.1748 0.9819,2.9906 c 1.8175,5.5358 0.5712,8.935 -4.8335,13.1824 -4.1145,3.2335 -4.7372,3.2437 -1.1182,0.019 z m 105.2669,-2.2642 c 0.1961,-1.0804 0.468,-2.4302 0.6042,-2.9995 0.2243,-0.9386 -0.9041,-2.1333 -4.76,-5.039 -0.6006,-0.4527 0.8734,-0.932 3.5471,-1.1535 l 3.0084,-0.2493 0.8596,-2.7864 c 1.3673,-4.4318 1.5762,-4.5015 2.7695,-0.9263 1.1793,3.5338 1.532,3.7563 6.2224,3.9247 l 2.243,0.081 -2.7064,2.4245 -2.7066,2.4246 0.6324,2.8262 c 0.348,1.5543 0.5492,2.9098 0.4471,3.0117 -0.1017,0.1017 -1.2522,-0.5081 -2.5557,-1.356 -2.5811,-1.6789 -2.7519,-1.6608 -6.2684,0.6633 l -1.6932,1.119 z m -160.0077,-15.7963 -0.9495,-1.1215 1.1215,0.9495 c 1.0538,0.8924 1.3483,1.2934 0.9494,1.2934 -0.094,0 -0.5992,-0.5046 -1.1214,-1.1214 z m -5.2366,-1.7445 c -1.6707,-1.7863 -3.7098,-4.4054 -2.6194,-3.3646 1.1878,1.1341 4.7745,5.2336 4.579,5.2336 -0.1168,0 -0.9983,-0.841 -1.9596,-1.869 z m 290.3622,-3.9876 c 0.1789,-0.7539 0.4376,-1.7448 0.573,-2.2019 0.1602,-0.5406 -0.3711,-1.3019 -1.5191,-2.1775 -0.9708,-0.7406 -1.765,-1.5318 -1.765,-1.7584 0,-0.2265 1.0465,-0.4802 2.3256,-0.5639 2.1565,-0.1413 2.3677,-0.2767 2.9004,-1.8663 0.7913,-2.3605 1.5586,-2.4259 2.0872,-0.1771 0.4438,1.8874 0.4525,1.8929 3.4009,2.1416 l 2.956,0.2492 -2.0977,1.7445 c -2.0609,1.7139 -2.0884,1.7782 -1.5651,3.6603 0.2929,1.0539 0.416,2.0327 0.2734,2.1754 -0.1432,0.1431 -1.0563,-0.2333 -2.0303,-0.8352 l -1.7707,-1.0943 -1.6789,1.0376 c -2.1947,1.3564 -2.4818,1.3106 -2.0897,-0.3332 z m -168.6823,-17.6374 c 0,-0.1 0.5433,-2.2589 1.1952,-4.7976 l 1.1851,-4.6155 -3.9394,-3.1103 -3.9391,-3.1101 4.8743,-0.4184 4.8743,-0.4182 1.7249,-4.657 c 0.9489,-2.5613 1.8407,-4.5427 1.982,-4.4031 0.1413,0.1394 0.9593,2.199 1.8176,4.5768 l 1.5606,4.323 4.7532,0.2494 c 2.6142,0.1375 4.8994,0.3954 5.078,0.574 0.2324,0.2327 -6.3547,5.963 -7.0519,6.1348 -0.045,0.019 0.4593,2.0386 1.1197,4.5059 0.6605,2.4673 1.2016,4.6739 1.2025,4.9035 0,0.2297 -1.4001,-0.5778 -3.1137,-1.7944 -5.1529,-3.6586 -4.8364,-3.608 -8.1272,-1.3029 -3.8894,2.7247 -5.2079,3.5773 -5.1961,3.3601 z m 97.4023,-21.9177 c -0.2142,-0.3466 -1.0834,-0.4335 -2.3347,-0.2334 -1.8699,0.2989 -1.9758,0.2511 -1.7079,-0.773 0.1809,-0.6931 -0.088,-1.5638 -0.7354,-2.3835 l -1.0211,-1.2917 1.5448,-0.1564 c 0.931,-0.094 1.7603,-0.5589 2.0873,-1.1701 l 0.5427,-1.0141 0.7325,1.0456 c 0.4028,0.5751 1.1682,1.0455 1.7009,1.0455 1.1603,0 1.2713,1.1223 0.1988,2.0122 -0.5275,0.4378 -0.672,1.0847 -0.4589,2.0549 0.318,1.4478 0.062,1.8515 -0.549,0.8638 z m -125.3249,-0.6053 c 0,-0.089 0.3617,-1.2219 0.8037,-2.5191 0.4421,-1.2974 0.7225,-2.4155 0.623,-2.4848 -2.0161,-1.4069 -4.4173,-3.4993 -4.4173,-3.8496 0,-0.2509 0.7703,-0.4564 1.7121,-0.4564 2.4724,0 4.1362,-0.7711 4.5092,-2.0898 0.6307,-2.2303 1.3805,-3.8915 1.7563,-3.8915 0.209,0 0.8807,1.2335 1.4928,2.7414 l 1.1126,2.7414 h 2.9328 c 1.613,0 2.9346,0.1677 2.9368,0.374 0,0.2055 -1.0433,1.2861 -2.3236,2.4011 -2.2687,1.9762 -2.3128,2.0691 -1.7486,3.6881 0.3186,0.9133 0.5789,2.0971 0.5789,2.6305 0,0.9121 -0.1318,0.8929 -2.2069,-0.3235 -2.7145,-1.5907 -2.8889,-1.5924 -5.1626,-0.047 -1.6595,1.1277 -2.5992,1.5203 -2.5992,1.0857 z m -16.5937,-3.6398 c -0.6007,-0.6008 -0.3907,-2.028 0.3943,-2.6795 0.9996,-0.8296 2.3507,0.2431 2.1425,1.701 -0.1469,1.0316 -1.8333,1.6819 -2.5368,0.9785 z m 94.6323,-4.5486 c 0.2624,-1.6705 0.1036,-2.0518 -1.4894,-3.5869 -0.9806,-0.9448 -1.7829,-1.898 -1.7829,-2.1185 0,-0.2202 1.08,-0.4005 2.3998,-0.4005 2.3918,0 2.4035,0 3.391,-2.3676 l 0.9907,-2.3677 0.9137,2.3677 0.9137,2.3676 h 2.4245 c 1.3335,0 2.4244,0.2025 2.4244,0.4501 0,0.2475 -0.8374,1.1218 -1.8611,1.943 -1.8317,1.4694 -1.8524,1.5252 -1.3153,3.5376 0.6192,2.3198 0.409,2.4364 -1.9172,1.064 -1.6505,-0.9738 -1.6712,-0.9738 -3.1436,0 -2.0557,1.3548 -2.2839,1.251 -1.9483,-0.8856 z m 38.5968,-18.8625 c -2.0561,-1.4655 -4.0381,-2.6714 -4.4045,-2.6798 -0.3664,0 -2.3347,1.138 -4.3738,2.5477 -2.0391,1.4095 -3.7894,2.4751 -3.8895,2.3675 -0.1,-0.1074 0.2444,-1.7654 0.7656,-3.6845 1.7588,-6.4764 2.0007,-5.6296 -2.6374,-9.234 l -4.152,-3.2269 1.7444,-0.1224 c 0.9597,-0.068 3.3518,-0.2527 5.3161,-0.4124 l 3.5715,-0.2909 1.6235,-4.7102 c 0.8931,-2.5907 1.771,-4.5358 1.9511,-4.3228 0.1809,0.2131 1.0657,2.3374 1.9681,4.7205 l 1.6407,4.3331 2.5564,0.282 c 1.4061,0.1544 3.6675,0.3361 5.0256,0.4022 l 2.469,0.1205 -3.8484,3.2318 c -2.5359,2.1299 -3.7528,3.4807 -3.5684,3.9611 0.6422,1.6738 2.2906,8.5688 2.1418,8.9585 -0.089,0.2325 -1.8438,-0.7761 -3.8998,-2.2414 z m -113.4644,1.5416 c -0.4375,-1.14 0.1752,-2.243 1.246,-2.243 1.0708,0 1.6836,1.103 1.2462,2.243 -0.1583,0.4112 -0.7186,0.7477 -1.2462,0.7477 -0.5275,0 -1.0883,-0.3365 -1.246,-0.7477 z m 29.2277,-5.1816 c 0,-1.1298 0.2617,-1.4811 1.243,-1.6688 1.3652,-0.2609 2.0174,0.3421 2.0037,1.8534 0,0.7486 -0.3964,1.0154 -1.6279,1.1154 -1.4807,0.1206 -1.6188,0 -1.6188,-1.3 z m -87.916,-18.1817 c -1.6626,-1.7981 -3.5481,-5.7955 -2.7341,-5.7955 0.2698,0 1.3185,0.6556 2.3305,1.4566 1.7509,1.3861 2.7405,1.7207 4.706,1.5915 1.4999,-0.098 0.9568,-1.4828 -1.1215,-2.858 -1.0966,-0.7257 -1.9937,-1.5243 -1.9937,-1.7747 0,-0.2503 0.9532,-0.4165 2.1184,-0.3692 1.165,0.047 3.4897,-0.081 5.1656,-0.283 2.8377,-0.3434 3.1035,-0.2886 3.8629,0.7956 2.7909,3.9846 -1.6087,8.9179 -7.953,8.9179 -2.5711,0 -2.9677,-0.1526 -4.3811,-1.6812 z m 65.814,0.8461 c -0.1431,-0.1432 -0.1394,-0.5739 0,-0.9582 0.147,-0.3845 0.021,-0.6989 -0.2835,-0.6989 -0.3035,0 -0.5518,-0.3364 -0.5518,-0.7477 0,-0.4112 0.2557,-0.7477 0.568,-0.7477 0.3125,0 0.8572,-0.3926 1.2106,-0.8722 0.6117,-0.8308 0.6584,-0.8308 0.9805,0 0.1865,0.4796 0.6505,0.8722 1.0324,0.8722 0.7534,0 0.8353,0.7085 0.2536,2.1909 -0.3435,0.8751 -2.6239,1.5563 -3.2188,0.9616 z m 94.7293,-9.445 c -0.6006,-0.6008 -0.3905,-2.028 0.3945,-2.6795 0.9996,-0.8296 2.3507,0.2431 2.1423,1.701 -0.1469,1.0316 -1.8334,1.6819 -2.5368,0.9785 z m -64.8567,-4.4872 c -0.3883,-1.0117 0.5332,-2.1799 1.7192,-2.1799 1.0949,0 1.4945,0.9482 0.8926,2.1185 -0.5646,1.0977 -2.1994,1.1361 -2.6118,0.062 z m 26.0574,-7.2887 c -0.3131,-0.5842 -0.2873,-0.8724 0.077,-0.8724 0.2999,0 0.4226,-0.1986 0.2726,-0.4414 -0.1507,-0.2429 0.2909,-0.5492 0.98,-0.6811 1.3909,-0.2658 2.2403,0.7055 1.8665,2.1347 -0.2972,1.1371 -2.5658,1.0378 -3.1971,-0.1395 z m 13.4597,-18.4424 c -0.3757,-0.7285 -0.098,-2.8661 0.3734,-2.8661 0.3325,0 0.7354,-0.2803 0.8954,-0.623 0.2326,-0.4985 0.3489,-0.4985 0.5815,0 0.1602,0.3427 0.6085,0.623 0.997,0.623 0.3882,0 0.7061,0.3364 0.7061,0.7477 0,0.4112 -0.2173,0.7477 -0.4829,0.7477 -0.2654,0 -0.3536,0.3365 -0.1959,0.7475 0.2172,0.5657 -0.09,0.7477 -1.2616,0.7477 -0.8519,0 -1.5776,-0.057 -1.613,-0.1243 z" id="path41"/></g></svg>